<svg width="138" height="41" viewBox="0 0 138 41" fill="none" xmlns="http://www.w3.org/2000/svg">
<path d="M132.805 1.64287C135.169 1.64287 137.092 3.5182 137.092 5.82284V35.6886C137.092 37.9933 135.169 39.8686 132.805 39.8686H5.17338C2.80964 39.8686 0.886233 37.9933 0.886233 35.6886V5.82284C0.886233 3.5182 2.80964 1.64287 5.17338 1.64287H132.805ZM132.805 0.845209H5.17338C2.36676 0.845209 0.0681152 3.08639 0.0681152 5.82284V35.6886C0.0681152 38.4251 2.36676 40.6663 5.17338 40.6663H132.805C135.612 40.6663 137.91 38.4251 137.91 35.6886V5.82284C137.91 3.08639 135.612 0.845209 132.805 0.845209Z" fill="#404040"/>
<path d="M30.8304 20.5407C30.8008 17.3321 33.525 15.7712 33.6495 15.6985C32.1067 13.5053 29.7154 13.2057 28.8751 13.1818C26.8667 12.9757 24.9185 14.3535 23.8954 14.3535C22.8519 14.3535 21.2764 13.2017 19.5784 13.2356C17.3933 13.2684 15.3492 14.5019 14.2281 16.4173C11.9144 20.3227 13.64 26.0619 15.8567 29.2187C16.9655 30.7648 18.2612 32.491 19.9572 32.4303C21.6164 32.3636 22.2362 31.3989 24.2385 31.3989C26.2224 31.3989 26.8044 32.4303 28.5341 32.3915C30.3148 32.3636 31.4359 30.8384 32.5059 29.2785C33.7874 27.5064 34.302 25.7613 34.3224 25.6717C34.2805 25.6577 30.8641 24.3864 30.8304 20.5407Z" fill="#404040"/>
<path d="M27.563 11.1051C28.4554 10.017 29.066 8.53667 28.8965 7.03442C27.6049 7.09017 25.9896 7.90551 25.0594 8.96973C24.2364 9.90751 23.5013 11.4446 23.6912 12.8901C25.1421 12.9956 26.6318 12.1763 27.563 11.1051Z" fill="#404040"/>
<path d="M54.8425 32.2085H52.5237L51.2535 28.317H46.8384L45.6285 32.2085H43.3709L47.7451 18.9601H50.4468L54.8425 32.2085ZM50.8706 26.6844L49.7219 23.2249C49.6004 22.8715 49.3727 22.0392 49.0368 20.7291H48.9959C48.8622 21.2926 48.6467 22.1249 48.3506 23.2249L47.2224 26.6844H50.8706Z" fill="#404040"/>
<path d="M66.0914 27.3142C66.0914 28.9389 65.6411 30.2231 64.7405 31.1659C63.9339 32.0051 62.9323 32.4242 61.7366 32.4242C60.446 32.4242 59.5189 31.9722 58.9542 31.0683H58.9134V36.1007H56.7365V25.8C56.7365 24.7786 56.7089 23.7303 56.6559 22.6551H58.5703L58.6918 24.1693H58.7327C59.4586 23.0284 60.5604 22.459 62.0388 22.459C63.1947 22.459 64.1596 22.904 64.9315 23.795C65.7054 24.687 66.0914 25.8597 66.0914 27.3142ZM63.8737 27.3918C63.8737 26.462 63.6593 25.6954 63.2284 25.0922C62.7577 24.463 62.1256 24.1484 61.3333 24.1484C60.7962 24.1484 60.3082 24.3236 59.8722 24.6691C59.4352 25.0175 59.1493 25.4724 59.0155 26.0359C58.9481 26.2987 58.9144 26.5138 58.9144 26.683V28.2758C58.9144 28.9707 59.1329 29.5571 59.5699 30.0359C60.0069 30.5148 60.5747 30.7537 61.2731 30.7537C62.093 30.7537 62.7311 30.4451 63.1875 29.8299C63.645 29.2136 63.8737 28.4013 63.8737 27.3918Z" fill="#404040"/>
<path d="M77.3608 27.3142C77.3608 28.9389 76.9105 30.2231 76.0089 31.1659C75.2033 32.0051 74.2016 32.4242 73.006 32.4242C71.7154 32.4242 70.7882 31.9722 70.2246 31.0683H70.1838V36.1007H68.0069V25.8C68.0069 24.7786 67.9793 23.7303 67.9262 22.6551H69.8407L69.9622 24.1693H70.0031C70.728 23.0284 71.8297 22.459 73.3092 22.459C74.464 22.459 75.4289 22.904 76.2029 23.795C76.9738 24.687 77.3608 25.8597 77.3608 27.3142ZM75.143 27.3918C75.143 26.462 74.9276 25.6954 74.4967 25.0922C74.026 24.463 73.396 24.1484 72.6027 24.1484C72.0646 24.1484 71.5775 24.3236 71.1405 24.6691C70.7035 25.0175 70.4186 25.4724 70.2849 26.0359C70.2185 26.2987 70.1838 26.5138 70.1838 26.683V28.2758C70.1838 28.9707 70.4023 29.5571 70.8373 30.0359C71.2743 30.5138 71.842 30.7537 72.5424 30.7537C73.3623 30.7537 74.0005 30.4451 74.4569 29.8299C74.9143 29.2136 75.143 28.4013 75.143 27.3918Z" fill="#404040"/>
<path d="M89.9606 28.4929C89.9606 29.6198 89.5593 30.5367 88.7537 31.2445C87.8684 32.0181 86.636 32.4043 85.0524 32.4043C83.5902 32.4043 82.4181 32.1296 81.5308 31.579L82.0352 29.81C82.9909 30.3735 84.0395 30.6562 85.182 30.6562C86.002 30.6562 86.6401 30.475 87.0986 30.1146C87.555 29.7542 87.7827 29.2704 87.7827 28.6671C87.7827 28.1295 87.5948 27.6766 87.218 27.3092C86.8433 26.9419 86.2174 26.6004 85.3434 26.2848C82.9643 25.4197 81.7758 24.1524 81.7758 22.4859C81.7758 21.3968 82.1924 20.5038 83.0266 19.8089C83.8577 19.1131 84.9666 18.7656 86.3532 18.7656C87.5897 18.7656 88.6169 18.9757 89.4368 19.3948L88.8925 21.125C88.1268 20.7188 87.2609 20.5158 86.2919 20.5158C85.5261 20.5158 84.9278 20.6999 84.499 21.0663C84.1365 21.3938 83.9547 21.793 83.9547 22.2659C83.9547 22.7895 84.162 23.2226 84.5786 23.5631C84.9411 23.8777 85.5997 24.2181 86.5554 24.5855C87.7245 25.0444 88.5832 25.581 89.1356 26.1962C89.6859 26.8095 89.9606 27.577 89.9606 28.4929Z" fill="#404040"/>
<path d="M97.1579 24.248H94.7585V28.8862C94.7585 30.0659 95.1812 30.6553 96.0287 30.6553C96.4177 30.6553 96.7403 30.6224 96.9956 30.5567L97.0558 32.1685C96.627 32.3248 96.0624 32.4034 95.3629 32.4034C94.5032 32.4034 93.8314 32.1476 93.3464 31.6368C92.8634 31.1251 92.6204 30.267 92.6204 29.0614V24.2461H91.1909V22.6532H92.6204V20.9041L94.7585 20.2749V22.6532H97.1579V24.248Z" fill="#404040"/>
<path d="M107.984 27.3531C107.984 28.8215 107.553 30.0271 106.694 30.9698C105.792 31.9405 104.595 32.4243 103.104 32.4243C101.666 32.4243 100.521 31.9594 99.6677 31.0296C98.8141 30.0998 98.3873 28.926 98.3873 27.5114C98.3873 26.031 98.8263 24.8185 99.7075 23.8757C100.587 22.932 101.773 22.4601 103.265 22.4601C104.702 22.4601 105.859 22.925 106.732 23.8558C107.568 24.7588 107.984 25.9245 107.984 27.3531ZM105.726 27.4218C105.726 26.5407 105.533 25.7851 105.142 25.155C104.685 24.3924 104.033 24.0121 103.187 24.0121C102.312 24.0121 101.647 24.3934 101.191 25.155C100.8 25.7861 100.607 26.5537 100.607 27.4616C100.607 28.3426 100.8 29.0983 101.191 29.7274C101.662 30.49 102.319 30.8703 103.168 30.8703C103.999 30.8703 104.651 30.482 105.122 29.7075C105.523 29.0654 105.726 28.3018 105.726 27.4218Z" fill="#404040"/>
<path d="M115.06 24.5217C114.845 24.4829 114.615 24.463 114.374 24.463C113.608 24.463 113.016 24.7447 112.599 25.3092C112.237 25.8069 112.055 26.4361 112.055 27.1957V32.2082H109.879L109.9 25.6636C109.9 24.5625 109.872 23.56 109.818 22.6561H111.714L111.794 24.4839H111.854C112.084 23.8557 112.446 23.35 112.942 22.9707C113.427 22.6292 113.951 22.459 114.516 22.459C114.717 22.459 114.899 22.4729 115.06 22.4978V24.5217Z" fill="#404040"/>
<path d="M124.796 26.9796C124.796 27.3599 124.77 27.6805 124.716 27.9423H118.186C118.211 28.8861 118.527 29.6078 119.133 30.1056C119.683 30.5506 120.395 30.7736 121.269 30.7736C122.236 30.7736 123.118 30.6233 123.912 30.3216L124.253 31.795C123.326 32.1892 122.231 32.3854 120.968 32.3854C119.449 32.3854 118.256 31.9493 117.388 31.0782C116.522 30.2071 116.088 29.0374 116.088 27.57C116.088 26.1295 116.492 24.9299 117.299 23.9732C118.145 22.9517 119.287 22.441 120.725 22.441C122.137 22.441 123.206 22.9517 123.932 23.9732C124.507 24.7845 124.796 25.788 124.796 26.9796ZM122.72 26.4291C122.734 25.7999 122.592 25.2564 122.297 24.7974C121.921 24.2071 121.342 23.9124 120.563 23.9124C119.851 23.9124 119.272 24.2001 118.83 24.7775C118.467 25.2365 118.252 25.787 118.186 26.4281H122.72V26.4291Z" fill="#404040"/>
<path d="M50.1508 10.8101C50.1508 11.9818 49.7903 12.8639 49.0705 13.4562C48.4038 14.0028 47.4562 14.2765 46.2289 14.2765C45.6204 14.2765 45.0996 14.2506 44.6636 14.1989V7.79665C45.2324 7.70705 45.845 7.66125 46.5066 7.66125C47.6757 7.66125 48.5569 7.90914 49.1512 8.40491C49.8169 8.96539 50.1508 9.76679 50.1508 10.8101ZM49.0225 10.839C49.0225 10.0794 48.8163 9.49701 48.4038 9.09083C47.9913 8.68565 47.3888 8.48256 46.5955 8.48256C46.2585 8.48256 45.9716 8.50447 45.7337 8.55026V13.4174C45.8654 13.4373 46.1064 13.4463 46.4566 13.4463C47.2755 13.4463 47.9075 13.2243 48.3527 12.7803C48.7979 12.3362 49.0225 11.6892 49.0225 10.839Z" fill="#404040"/>
<path d="M56.1331 11.8329C56.1331 12.5546 55.9218 13.146 55.499 13.6099C55.0559 14.0868 54.4688 14.3247 53.7357 14.3247C53.0291 14.3247 52.4665 14.0967 52.0469 13.6388C51.6282 13.1818 51.4189 12.6054 51.4189 11.9105C51.4189 11.1838 51.6344 10.5875 52.0673 10.1246C52.5002 9.66165 53.0822 9.42969 53.8153 9.42969C54.5219 9.42969 55.0896 9.65766 55.5195 10.1146C55.9279 10.5586 56.1331 11.132 56.1331 11.8329ZM55.0232 11.8667C55.0232 11.4337 54.9273 11.0623 54.7363 10.7527C54.5117 10.3784 54.1921 10.1913 53.7765 10.1913C53.3467 10.1913 53.0199 10.3784 52.7953 10.7527C52.6033 11.0623 52.5084 11.4397 52.5084 11.8857C52.5084 12.3187 52.6044 12.69 52.7953 12.9996C53.0271 13.374 53.3497 13.5611 53.7663 13.5611C54.1747 13.5611 54.4953 13.371 54.7261 12.9897C54.9242 12.6741 55.0232 12.2998 55.0232 11.8667Z" fill="#404040"/>
<path d="M64.1545 9.52527L62.6484 14.2182H61.6682L61.0444 12.1803C60.8861 11.6716 60.7574 11.1659 60.6574 10.6642H60.638C60.5451 11.1798 60.4164 11.6846 60.251 12.1803L59.5883 14.2182H58.5969L57.1807 9.52527H58.2804L58.8246 11.7562C58.9563 12.2839 59.0645 12.7866 59.1513 13.2625H59.1707C59.2504 12.8702 59.3821 12.3705 59.5679 11.7662L60.251 9.52626H61.123L61.7775 11.7184C61.9357 12.253 62.0644 12.7677 62.1634 13.2635H62.193C62.2655 12.7806 62.3748 12.266 62.5198 11.7184L63.1038 9.52626H64.1545V9.52527Z" fill="#404040"/>
<path d="M69.7019 14.2181H68.6318V11.5302C68.6318 10.7019 68.3092 10.2878 67.6618 10.2878C67.3443 10.2878 67.088 10.4013 66.8889 10.6292C66.6918 10.8572 66.5918 11.126 66.5918 11.4336V14.2171H65.5217V10.8662C65.5217 10.454 65.5084 10.007 65.4829 9.5232H66.4233L66.4733 10.2569H66.5029C66.6275 10.0289 66.8133 9.84078 67.0574 9.69045C67.3473 9.51524 67.672 9.42664 68.0274 9.42664C68.4766 9.42664 68.8503 9.568 69.1475 9.85173C69.5171 10.1992 69.7019 10.7178 69.7019 11.4067V14.2181Z" fill="#404040"/>
<path d="M72.6527 14.2182H71.5836V7.37195H72.6527V14.2182Z" fill="#404040"/>
<path d="M78.9526 11.8329C78.9526 12.5546 78.7412 13.146 78.3185 13.6099C77.8754 14.0868 77.2873 14.3247 76.5552 14.3247C75.8476 14.3247 75.285 14.0967 74.8663 13.6388C74.4477 13.1818 74.2384 12.6054 74.2384 11.9105C74.2384 11.1838 74.4538 10.5875 74.8868 10.1246C75.3197 9.66165 75.9017 9.42969 76.6338 9.42969C77.3414 9.42969 77.9081 9.65766 78.3389 10.1146C78.7474 10.5586 78.9526 11.132 78.9526 11.8329ZM77.8417 11.8667C77.8417 11.4337 77.7457 11.0623 77.5548 10.7527C77.3312 10.3784 77.0106 10.1913 76.596 10.1913C76.1651 10.1913 75.8384 10.3784 75.6148 10.7527C75.4228 11.0623 75.3279 11.4397 75.3279 11.8857C75.3279 12.3187 75.4238 12.69 75.6148 12.9996C75.8466 13.374 76.1692 13.5611 76.5858 13.5611C76.9942 13.5611 77.3138 13.371 77.5446 12.9897C77.7437 12.6741 77.8417 12.2998 77.8417 11.8667Z" fill="#404040"/>
<path d="M84.1314 14.2182H83.1706L83.0909 13.6776H83.0613C82.7325 14.1087 82.2639 14.3247 81.6553 14.3247C81.201 14.3247 80.8334 14.1823 80.5567 13.8996C80.3055 13.6428 80.1799 13.3232 80.1799 12.9439C80.1799 12.3705 80.425 11.9334 80.9181 11.6308C81.4103 11.3282 82.1025 11.1798 82.9939 11.1868V11.0992C82.9939 10.481 82.6611 10.1724 81.9943 10.1724C81.5195 10.1724 81.1009 10.2888 80.7394 10.5198L80.522 9.83487C80.9692 9.56508 81.5216 9.42969 82.173 9.42969C83.4309 9.42969 84.0619 10.0768 84.0619 11.371V13.0992C84.0619 13.5681 84.0854 13.9414 84.1314 14.2182ZM83.0205 12.6054V11.8817C81.8401 11.8618 81.25 12.1773 81.25 12.8274C81.25 13.0723 81.3174 13.2555 81.4552 13.3779C81.593 13.5004 81.7687 13.5611 81.978 13.5611C82.2128 13.5611 82.4323 13.4884 82.6325 13.3441C82.8336 13.1987 82.9572 13.0146 83.0031 12.7886C83.0143 12.7378 83.0205 12.6761 83.0205 12.6054Z" fill="#404040"/>
<path d="M90.2118 14.2182H89.2622L89.2122 13.4646H89.1825C88.8793 14.038 88.3626 14.3247 87.6367 14.3247C87.0567 14.3247 86.5738 14.1027 86.1909 13.6587C85.808 13.2147 85.617 12.6383 85.617 11.9305C85.617 11.1709 85.8243 10.5556 86.2409 10.0858C86.6442 9.64772 87.1384 9.42871 87.7265 9.42871C88.3728 9.42871 88.8252 9.64075 89.0825 10.0658H89.1029V7.37195H90.174V12.9539C90.174 13.4108 90.1862 13.8319 90.2118 14.2182ZM89.1029 12.2391V11.4566C89.1029 11.3212 89.0927 11.2117 89.0733 11.1281C89.013 10.8772 88.8834 10.6661 88.6863 10.4959C88.4872 10.3257 88.2473 10.2401 87.9706 10.2401C87.5713 10.2401 87.2589 10.3944 87.0291 10.704C86.8014 11.0136 86.6861 11.4088 86.6861 11.8916C86.6861 12.3556 86.7953 12.7319 87.0148 13.0216C87.2466 13.3302 87.5591 13.4845 87.9501 13.4845C88.3014 13.4845 88.5822 13.3561 88.7956 13.0982C89.0018 12.8603 89.1029 12.5736 89.1029 12.2391Z" fill="#404040"/>
<path d="M99.3635 11.8329C99.3635 12.5546 99.1521 13.146 98.7294 13.6099C98.2863 14.0868 97.7002 14.3247 96.9661 14.3247C96.2605 14.3247 95.6979 14.0967 95.2772 13.6388C94.8586 13.1818 94.6493 12.6054 94.6493 11.9105C94.6493 11.1838 94.8647 10.5875 95.2977 10.1246C95.7306 9.66165 96.3126 9.42969 97.0467 9.42969C97.7523 9.42969 98.321 9.65766 98.7498 10.1146C99.1583 10.5586 99.3635 11.132 99.3635 11.8329ZM98.2546 11.8667C98.2546 11.4337 98.1586 11.0623 97.9677 10.7527C97.7421 10.3784 97.4235 10.1913 97.0069 10.1913C96.5781 10.1913 96.2513 10.3784 96.0257 10.7527C95.8337 11.0623 95.7388 11.4397 95.7388 11.8857C95.7388 12.3187 95.8347 12.69 96.0257 12.9996C96.2574 13.374 96.5801 13.5611 96.9967 13.5611C97.4051 13.5611 97.7267 13.371 97.9575 12.9897C98.1546 12.6741 98.2546 12.2998 98.2546 11.8667Z" fill="#404040"/>
<path d="M105.117 14.2181H104.048V11.5302C104.048 10.7019 103.725 10.2878 103.077 10.2878C102.759 10.2878 102.503 10.4013 102.305 10.6292C102.107 10.8572 102.008 11.126 102.008 11.4336V14.2171H100.937V10.8662C100.937 10.454 100.925 10.007 100.899 9.5232H101.838L101.889 10.2569H101.918C102.044 10.0289 102.23 9.84078 102.473 9.69045C102.764 9.51524 103.087 9.42664 103.444 9.42664C103.892 9.42664 104.266 9.568 104.563 9.85173C104.933 10.1992 105.117 10.7178 105.117 11.4067V14.2181Z" fill="#404040"/>
<path d="M112.319 10.3068H111.14V12.5866C111.14 13.166 111.35 13.4557 111.764 13.4557C111.956 13.4557 112.115 13.4397 112.241 13.4069L112.269 14.1983C112.057 14.276 111.779 14.3148 111.437 14.3148C111.015 14.3148 110.686 14.1894 110.448 13.9385C110.209 13.6876 110.091 13.2655 110.091 12.6732V10.3068H109.387V9.52532H110.091V8.66518L111.139 8.35657V9.52432H112.318V10.3068H112.319Z" fill="#404040"/>
<path d="M117.983 14.2182H116.912V11.5502C116.912 10.709 116.59 10.2878 115.943 10.2878C115.447 10.2878 115.108 10.5317 114.922 11.0196C114.891 11.1221 114.872 11.2475 114.872 11.3949V14.2172H113.803V7.37195H114.872V10.2002H114.893C115.23 9.68555 115.713 9.42871 116.338 9.42871C116.782 9.42871 117.148 9.57007 117.439 9.8538C117.802 10.2072 117.983 10.7328 117.983 11.4277V14.2182Z" fill="#404040"/>
<path d="M123.827 11.6496C123.827 11.8368 123.813 11.9941 123.787 12.1225H120.578C120.592 12.5864 120.745 12.9398 121.042 13.1847C121.314 13.4038 121.664 13.5133 122.093 13.5133C122.568 13.5133 123.001 13.4396 123.391 13.2913L123.558 14.016C123.102 14.2091 122.565 14.3057 121.943 14.3057C121.198 14.3057 120.611 14.0917 120.186 13.6636C119.759 13.2355 119.548 12.6611 119.548 11.9403C119.548 11.2325 119.745 10.6432 120.142 10.1733C120.556 9.67153 121.117 9.42065 121.825 9.42065C122.517 9.42065 123.043 9.67153 123.398 10.1733C123.685 10.5715 123.827 11.0643 123.827 11.6496ZM122.806 11.3798C122.814 11.0702 122.743 10.8034 122.599 10.5785C122.413 10.2888 122.13 10.1434 121.747 10.1434C121.398 10.1434 121.113 10.2848 120.895 10.5685C120.718 10.7945 120.613 11.0643 120.578 11.3798H122.806Z" fill="#404040"/>
</svg>
