<svg width="139" height="41" viewBox="0 0 139 41" fill="none" xmlns="http://www.w3.org/2000/svg">
<path d="M132.97 1.34038C135.33 1.34038 137.251 3.21571 137.251 5.52035V35.3861C137.251 37.6908 135.33 39.5661 132.97 39.5661H5.51377C3.15329 39.5661 1.23252 37.6908 1.23252 35.3861V5.52035C1.23252 3.21571 3.15329 1.34038 5.51377 1.34038H132.97ZM132.97 0.542718H5.51377C2.71101 0.542718 0.415527 2.7839 0.415527 5.52035V35.3861C0.415527 38.1226 2.71101 40.3638 5.51377 40.3638H132.97C135.773 40.3638 138.068 38.1226 138.068 35.3861V5.52035C138.068 2.7839 135.773 0.542718 132.97 0.542718Z" fill="#404040"/>
<path d="M48.7647 10.7406C48.7647 11.5719 48.5098 12.2376 48.0076 12.7341C47.4302 13.3227 46.6782 13.6189 45.7567 13.6189C44.876 13.6189 44.124 13.3178 43.5071 12.7242C42.8889 12.1219 42.5805 11.3827 42.5805 10.4979C42.5805 9.61315 42.8889 8.87398 43.5071 8.27666C44.124 7.6781 44.876 7.37695 45.7567 7.37695C46.1952 7.37695 46.6132 7.46531 47.0122 7.62957C47.4098 7.79507 47.7336 8.01907 47.9681 8.29533L47.4353 8.82047C47.0262 8.34884 46.4692 8.11613 45.7567 8.11613C45.1143 8.11613 44.5574 8.33515 44.0845 8.77691C43.6167 9.21992 43.3822 9.79359 43.3822 10.4979C43.3822 11.2023 43.6167 11.7809 44.0845 12.2239C44.5574 12.6607 45.1143 12.8847 45.7567 12.8847C46.4386 12.8847 47.0122 12.6607 47.4646 12.2189C47.7629 11.9265 47.9324 11.5233 47.977 11.0081H45.7567V10.2889H48.7188C48.7545 10.4444 48.7647 10.595 48.7647 10.7406Z" fill="#404040" stroke="#404040" stroke-width="0.16" stroke-miterlimit="10"/>
<path d="M53.464 8.24687H50.6816V10.1384H53.1899V10.8576H50.6816V12.7491H53.464V13.4821H49.8939V7.51392H53.464V8.24687Z" fill="#404040" stroke="#404040" stroke-width="0.16" stroke-miterlimit="10"/>
<path d="M56.7804 13.4821H55.9927V8.24687H54.2861V7.51392H58.4883V8.24687H56.7804V13.4821Z" fill="#404040" stroke="#404040" stroke-width="0.16" stroke-miterlimit="10"/>
<path d="M61.5294 13.4821V7.51392H62.3158V13.4821H61.5294Z" fill="#404040" stroke="#404040" stroke-width="0.16" stroke-miterlimit="10"/>
<path d="M65.8017 13.4821H65.0204V8.24687H63.3074V7.51392H67.5148V8.24687H65.8017V13.4821Z" fill="#404040" stroke="#404040" stroke-width="0.16" stroke-miterlimit="10"/>
<path d="M75.4706 12.7142C74.8677 13.3178 74.1208 13.6189 73.2299 13.6189C72.3339 13.6189 71.587 13.3178 70.9841 12.7142C70.3825 12.1119 70.083 11.3727 70.083 10.4979C70.083 9.62311 70.3825 8.88393 70.9841 8.28164C71.587 7.6781 72.3339 7.37695 73.2299 7.37695C74.1157 7.37695 74.8626 7.6781 75.4655 8.28661C76.0722 8.89389 76.3717 9.62809 76.3717 10.4979C76.3717 11.3727 76.0722 12.1119 75.4706 12.7142ZM71.5666 12.214C72.0203 12.6607 72.5722 12.8847 73.2299 12.8847C73.8825 12.8847 74.4395 12.6607 74.8881 12.214C75.3406 11.7672 75.57 11.1936 75.57 10.4979C75.57 9.8023 75.3406 9.22863 74.8881 8.78189C74.4395 8.33515 73.8825 8.11115 73.2299 8.11115C72.5722 8.11115 72.0203 8.33515 71.5666 8.78189C71.1141 9.22863 70.8847 9.8023 70.8847 10.4979C70.8847 11.1936 71.1141 11.7672 71.5666 12.214Z" fill="#404040" stroke="#404040" stroke-width="0.16" stroke-miterlimit="10"/>
<path d="M77.4767 13.4821V7.51392H78.4327L81.4049 12.1556H81.4394L81.4049 11.0082V7.51392H82.1914V13.4821H81.3705L78.2581 8.61148H78.2236L78.2581 9.7638V13.4821H77.4767Z" fill="#404040" stroke="#404040" stroke-width="0.16" stroke-miterlimit="10"/>
<path d="M69.8893 22.198C67.4944 22.198 65.5379 23.9775 65.5379 26.4328C65.5379 28.8681 67.4944 30.6662 69.8893 30.6662C72.2893 30.6662 74.2457 28.8681 74.2457 26.4328C74.2457 23.9775 72.2893 22.198 69.8893 22.198ZM69.8893 28.9987C68.5752 28.9987 67.4447 27.9397 67.4447 26.4328C67.4447 24.9059 68.5752 23.8655 69.8893 23.8655C71.2034 23.8655 72.339 24.9059 72.339 26.4328C72.339 27.9397 71.2034 28.9987 69.8893 28.9987ZM60.3951 22.198C57.9951 22.198 56.0437 23.9775 56.0437 26.4328C56.0437 28.8681 57.9951 30.6662 60.3951 30.6662C62.7938 30.6662 64.7464 28.8681 64.7464 26.4328C64.7464 23.9775 62.7938 22.198 60.3951 22.198ZM60.3951 28.9987C59.0797 28.9987 57.9454 27.9397 57.9454 26.4328C57.9454 24.9059 59.0797 23.8655 60.3951 23.8655C61.7091 23.8655 62.8397 24.9059 62.8397 26.4328C62.8397 27.9397 61.7091 28.9987 60.3951 28.9987ZM49.0974 23.496V25.2954H53.4984C53.3697 26.3008 53.0256 27.04 52.4979 27.5552C51.8555 28.1774 50.855 28.8681 49.0974 28.8681C46.3889 28.8681 44.2681 26.7339 44.2681 24.0895C44.2681 21.4452 46.3889 19.311 49.0974 19.311C50.5618 19.311 51.6274 19.8698 52.4138 20.594L53.7126 19.3259C52.6126 18.3006 51.1494 17.5128 49.0974 17.5128C45.3833 17.5128 42.2619 20.4633 42.2619 24.0895C42.2619 27.7157 45.3833 30.6662 49.0974 30.6662C51.1048 30.6662 52.6126 30.0241 53.798 28.8195C55.0126 27.6336 55.3912 25.9661 55.3912 24.6197C55.3912 24.2015 55.3555 23.817 55.2917 23.496H49.0974ZM95.2951 24.8909C94.937 23.9439 93.8319 22.198 91.581 22.198C89.3506 22.198 87.4935 23.9141 87.4935 26.4328C87.4935 28.8046 89.3314 30.6662 91.7952 30.6662C93.7873 30.6662 94.937 29.4803 95.4098 28.7897L93.9313 27.8277C93.4381 28.5321 92.7664 28.9987 91.7952 28.9987C90.8303 28.9987 90.1382 28.5669 89.6947 27.7157L95.4952 25.3725L95.2951 24.8909ZM89.3811 26.3008C89.3314 24.6682 90.6799 23.8319 91.646 23.8319C92.4031 23.8319 93.0455 24.2015 93.2596 24.7304L89.3811 26.3008ZM84.6665 30.4086H86.5733V17.9646H84.6665V30.4086ZM81.5439 23.1413H81.4801C81.0519 22.646 80.2349 22.198 79.2 22.198C77.0281 22.198 75.0423 24.0597 75.0423 26.4464C75.0423 28.8195 77.0281 30.6662 79.2 30.6662C80.2349 30.6662 81.0519 30.2145 81.4801 29.7043H81.5439V30.3116C81.5439 31.9305 80.658 32.8004 79.2293 32.8004C78.0643 32.8004 77.3416 31.9791 77.0434 31.2884L75.3852 31.9641C75.8632 33.0866 77.1288 34.4679 79.2293 34.4679C81.4648 34.4679 83.3512 33.1837 83.3512 30.059V22.4556H81.5439V23.1413ZM79.3631 28.9987C78.049 28.9987 76.9491 27.9248 76.9491 26.4464C76.9491 24.9544 78.049 23.8655 79.3631 23.8655C80.658 23.8655 81.679 24.9544 81.679 26.4464C81.679 27.9248 80.658 28.9987 79.3631 28.9987ZM104.222 17.9646H99.6617V30.4086H101.563V25.6936H104.222C106.334 25.6936 108.405 24.2015 108.405 21.8284C108.405 19.4566 106.329 17.9646 104.222 17.9646ZM104.272 23.9626H101.563V19.6955H104.272C105.692 19.6955 106.502 20.8466 106.502 21.8284C106.502 22.7916 105.692 23.9626 104.272 23.9626ZM116.027 22.1744C114.653 22.1744 113.224 22.7667 112.637 24.0796L114.324 24.7702C114.688 24.0796 115.355 23.8556 116.062 23.8556C117.048 23.8556 118.049 24.4342 118.064 25.4559V25.5866C117.72 25.3924 116.983 25.105 116.077 25.105C114.259 25.105 112.407 26.0818 112.407 27.9049C112.407 29.5724 113.896 30.6463 115.57 30.6463C116.849 30.6463 117.555 30.0826 117.999 29.4268H118.064V30.3887H119.901V25.6152C119.901 23.4088 118.213 22.1744 116.027 22.1744ZM115.798 28.9937C115.176 28.9937 114.309 28.6926 114.309 27.9397C114.309 26.9766 115.39 26.607 116.325 26.607C117.163 26.607 117.555 26.7874 118.064 27.0251C117.915 28.1774 116.899 28.9937 115.798 28.9937ZM126.592 22.4469L124.406 27.8414H124.341L122.081 22.4469H120.031L123.426 29.9855L121.489 34.1804H123.476L128.708 22.4469H126.592ZM109.45 30.4086H111.357V17.9646H109.45V30.4086Z" fill="#404040"/>
<path d="M11.0555 8.04772C10.756 8.35385 10.5826 8.83045 10.5826 9.44768V31.4638C10.5826 32.081 10.756 32.5576 11.0555 32.8637L11.1294 32.9309L23.7654 20.5988V20.3076L11.1294 7.97555L11.0555 8.04772Z" fill="url(#paint0_linear)"/>
<path d="M27.9728 24.7115L23.7654 20.5988V20.3076L27.9779 16.1948L28.0722 16.2483L33.0608 19.0196C34.4845 19.8061 34.4845 21.1003 33.0608 21.8917L28.0722 24.658L27.9728 24.7115Z" fill="url(#paint1_linear)"/>
<path d="M28.0722 24.6581L23.7655 20.4533L11.0555 32.8637C11.5284 33.3491 12.2995 33.4076 13.1764 32.9222L28.0722 24.6581Z" fill="url(#paint2_linear)"/>
<path d="M28.0722 16.2484L13.1764 7.98428C12.2995 7.50394 11.5284 7.56243 11.0555 8.04775L23.7655 20.4532L28.0722 16.2484Z" fill="url(#paint3_linear)"/>
<defs>
<linearGradient id="paint0_linear" x1="22.6435" y1="31.693" x2="5.94097" y2="14.5858" gradientUnits="userSpaceOnUse">
<stop stop-color="#00A0FF"/>
<stop offset="0.0066" stop-color="#00A1FF"/>
<stop offset="0.2601" stop-color="#00BEFF"/>
<stop offset="0.5122" stop-color="#00D2FF"/>
<stop offset="0.7604" stop-color="#00DFFF"/>
<stop offset="1" stop-color="#00E3FF"/>
</linearGradient>
<linearGradient id="paint1_linear" x1="34.9147" y1="20.4518" x2="10.2423" y2="20.4518" gradientUnits="userSpaceOnUse">
<stop stop-color="#FFE000"/>
<stop offset="0.4087" stop-color="#FFBD00"/>
<stop offset="0.7754" stop-color="#FFA500"/>
<stop offset="1" stop-color="#FF9C00"/>
</linearGradient>
<linearGradient id="paint2_linear" x1="25.7303" y1="18.1674" x2="3.08034" y2="-5.03138" gradientUnits="userSpaceOnUse">
<stop stop-color="#FF3A44"/>
<stop offset="1" stop-color="#C31162"/>
</linearGradient>
<linearGradient id="paint3_linear" x1="7.85619" y1="40.1884" x2="17.9704" y2="29.8291" gradientUnits="userSpaceOnUse">
<stop stop-color="#32A071"/>
<stop offset="0.0685" stop-color="#2DA771"/>
<stop offset="0.4762" stop-color="#15CF74"/>
<stop offset="0.8009" stop-color="#06E775"/>
<stop offset="1" stop-color="#00F076"/>
</linearGradient>
</defs>
</svg>
