<svg width="121" height="42" viewBox="0 0 121 42" fill="none" xmlns="http://www.w3.org/2000/svg">
<path fill-rule="evenodd" clip-rule="evenodd" d="M0.571533 0.527345V0.946255V5.13541V41.9999L0.571583 41.9999L5.17959 41.9999L37.4361 41.9999L41.6252 41.9999L42.0441 41.9999V5.13541H37.4361V37.3918H5.17959V5.13541L37.436 5.13541V0.527344L0.571533 0.527345Z" fill="url(#paint0_linear)"/>
<path fill-rule="evenodd" clip-rule="evenodd" d="M14.8146 11.8381H19.0038V11.8381L28.2199 11.8381V16.0273L19.0038 16.0273V19.7975H14.8146V16.0273H14.8146L14.8146 11.8381H14.8146V11.8381ZM23.6118 25.2434V21.0543H19.0038H14.8146H14.8145V25.2434H14.8146V31.5271H19.0038V25.2434H23.6118Z" fill="#404040"/>
<path d="M54.2546 22.945C55.3817 22.945 56.3573 23.1303 57.1813 23.501C58.0175 23.8717 58.6598 24.3979 59.1082 25.0795C59.5566 25.7611 59.7808 26.5682 59.7808 27.501C59.7808 28.4217 59.5566 29.2289 59.1082 29.9225C58.6598 30.6041 58.0175 31.1302 57.1813 31.5009C56.3573 31.8596 55.3817 32.039 54.2546 32.039H51.6915V35.5008H48.7466V22.945H54.2546ZM54.091 29.6713C54.9757 29.6713 55.6483 29.486 56.1088 29.1153C56.5693 28.7326 56.7996 28.1945 56.7996 27.501C56.7996 26.7954 56.5693 26.2573 56.1088 25.8866C55.6483 25.504 54.9757 25.3127 54.091 25.3127H51.6915V29.6713H54.091Z" fill="#404040"/>
<path d="M68.5868 35.7161C67.2658 35.7161 66.0721 35.4351 65.0056 34.8731C63.9513 34.311 63.1212 33.5397 62.5152 32.5592C61.9214 31.5667 61.6245 30.4546 61.6245 29.2229C61.6245 27.9912 61.9214 26.8851 62.5152 25.9046C63.1212 24.9121 63.9513 24.1348 65.0056 23.5728C66.0721 23.0108 67.2658 22.7297 68.5868 22.7297C69.9077 22.7297 71.0954 23.0108 72.1497 23.5728C73.204 24.1348 74.0342 24.9121 74.6401 25.9046C75.246 26.8851 75.549 27.9912 75.549 29.2229C75.549 30.4546 75.246 31.5667 74.6401 32.5592C74.0342 33.5397 73.204 34.311 72.1497 34.8731C71.0954 35.4351 69.9077 35.7161 68.5868 35.7161ZM68.5868 33.2408C69.3381 33.2408 70.0168 33.0734 70.6227 32.7386C71.2287 32.3918 71.7013 31.9135 72.0406 31.3036C72.3921 30.6937 72.5678 30.0002 72.5678 29.2229C72.5678 28.4456 72.3921 27.7521 72.0406 27.1422C71.7013 26.5324 71.2287 26.06 70.6227 25.7252C70.0168 25.3784 69.3381 25.205 68.5868 25.205C67.8354 25.205 67.1567 25.3784 66.5508 25.7252C65.9449 26.06 65.4662 26.5324 65.1147 27.1422C64.7754 27.7521 64.6057 28.4456 64.6057 29.2229C64.6057 30.0002 64.7754 30.6937 65.1147 31.3036C65.4662 31.9135 65.9449 32.3918 66.5508 32.7386C67.1567 33.0734 67.8354 33.2408 68.5868 33.2408Z" fill="#404040"/>
<path d="M82.3068 35.7161C81.3009 35.7161 80.3253 35.5846 79.3801 35.3215C78.4469 35.0464 77.6956 34.6937 77.126 34.2632L78.1258 32.0749C78.6711 32.4695 79.3195 32.7864 80.0709 33.0255C80.8222 33.2647 81.5736 33.3843 82.3249 33.3843C83.1611 33.3843 83.7792 33.2647 84.1791 33.0255C84.579 32.7744 84.779 32.4456 84.779 32.039C84.779 31.7401 84.6578 31.4949 84.4154 31.3036C84.1852 31.1003 83.8822 30.9389 83.5065 30.8193C83.143 30.6997 82.6461 30.5682 82.0159 30.4247C81.0464 30.1975 80.2526 29.9703 79.6346 29.7431C79.0165 29.5159 78.4833 29.1512 78.0349 28.6489C77.5986 28.1467 77.3805 27.4771 77.3805 26.64C77.3805 25.9106 77.5804 25.2529 77.9804 24.6669C78.3803 24.069 78.9802 23.5967 79.78 23.2499C80.592 22.9031 81.5796 22.7297 82.743 22.7297C83.555 22.7297 84.3488 22.8254 85.1244 23.0167C85.9 23.2081 86.5787 23.4831 87.1604 23.8418L86.2514 26.0481C85.0759 25.3904 83.9004 25.0615 82.7249 25.0615C81.9008 25.0615 81.2888 25.1931 80.8889 25.4562C80.5011 25.7192 80.3072 26.066 80.3072 26.4965C80.3072 26.927 80.5314 27.2498 80.9798 27.4651C81.4403 27.6684 82.1371 27.8717 83.0703 28.0749C84.0398 28.3021 84.8335 28.5293 85.4516 28.7566C86.0697 28.9838 86.5968 29.3425 87.0331 29.8328C87.4815 30.323 87.7057 30.9867 87.7057 31.8238C87.7057 32.5412 87.4997 33.1989 87.0876 33.7968C86.6877 34.3828 86.0818 34.8491 85.2698 35.1959C84.4579 35.5427 83.4702 35.7161 82.3068 35.7161Z" fill="#404040"/>
<path d="M51.6807 9.44024V12.8656H57.5488V15.2726H51.6807V19.9941H48.7466V7.03322H58.3276V9.44024H51.6807Z" fill="#404040"/>
<path d="M66.3088 20.2163C64.4977 20.2163 63.085 19.704 62.0707 18.6795C61.0686 17.655 60.5675 16.1923 60.5675 14.2913V7.03322H63.5015V14.1802C63.5015 16.5008 64.4433 17.6612 66.3269 17.6612C67.2446 17.6612 67.9449 17.3834 68.4279 16.828C68.9108 16.2601 69.1523 15.3776 69.1523 14.1802V7.03322H72.0501V14.2913C72.0501 16.1923 71.543 17.655 70.5288 18.6795C69.5266 19.704 68.12 20.2163 66.3088 20.2163Z" fill="#404040"/>
<path d="M79.4774 20.2163C78.4752 20.2163 77.5033 20.0805 76.5615 19.809C75.6317 19.5251 74.8831 19.1609 74.3156 18.7165L75.3118 16.4576C75.8551 16.865 76.5011 17.1921 77.2497 17.439C77.9983 17.6858 78.7469 17.8093 79.4955 17.8093C80.3286 17.8093 80.9444 17.6858 81.3429 17.439C81.7413 17.1798 81.9406 16.8403 81.9406 16.4206C81.9406 16.112 81.8198 15.859 81.5783 15.6615C81.3489 15.4516 81.0471 15.285 80.6728 15.1616C80.3105 15.0381 79.8155 14.9023 79.1876 14.7542C78.2217 14.5197 77.4308 14.2852 76.815 14.0506C76.1992 13.8161 75.668 13.4396 75.2212 12.9212C74.7865 12.4027 74.5692 11.7115 74.5692 10.8474C74.5692 10.0945 74.7684 9.41556 75.1669 8.81072C75.5653 8.19353 76.163 7.70595 76.9599 7.34799C77.7689 6.99002 78.7529 6.81104 79.9121 6.81104C80.7211 6.81104 81.5119 6.90978 82.2847 7.10728C83.0574 7.30478 83.7336 7.58869 84.3132 7.959L83.4076 10.2364C82.2364 9.55751 81.0652 9.21806 79.894 9.21806C79.0729 9.21806 78.4632 9.35384 78.0647 9.6254C77.6783 9.89696 77.4851 10.2549 77.4851 10.6993C77.4851 11.1437 77.7085 11.477 78.1553 11.6991C78.6141 11.909 79.3084 12.1188 80.2381 12.3287C81.204 12.5632 81.9949 12.7977 82.6107 13.0323C83.2265 13.2668 83.7517 13.6371 84.1864 14.1432C84.6331 14.6493 84.8565 15.3344 84.8565 16.1984C84.8565 16.939 84.6512 17.618 84.2407 18.2351C83.8423 18.84 83.2386 19.3214 82.4296 19.6794C81.6206 20.0373 80.6365 20.2163 79.4774 20.2163Z" fill="#404040"/>
<path d="M87.2236 7.03322H90.1576V19.9941H87.2236V7.03322Z" fill="#404040"/>
<path d="M99.6684 20.2163C98.3523 20.2163 97.163 19.9262 96.1005 19.3461C95.05 18.7659 94.2229 17.9697 93.6192 16.9576C93.0276 15.933 92.7317 14.7851 92.7317 13.5137C92.7317 12.2423 93.0276 11.1005 93.6192 10.0883C94.2229 9.06376 95.05 8.26142 96.1005 7.68127C97.163 7.10111 98.3523 6.81104 99.6684 6.81104C100.985 6.81104 102.168 7.10111 103.218 7.68127C104.269 8.26142 105.096 9.06376 105.7 10.0883C106.303 11.1005 106.605 12.2423 106.605 13.5137C106.605 14.7851 106.303 15.933 105.7 16.9576C105.096 17.9697 104.269 18.7659 103.218 19.3461C102.168 19.9262 100.985 20.2163 99.6684 20.2163ZM99.6684 17.6612C100.417 17.6612 101.093 17.4883 101.697 17.1427C102.301 16.7848 102.772 16.291 103.11 15.6615C103.46 15.0319 103.635 14.316 103.635 13.5137C103.635 12.7113 103.46 11.9954 103.11 11.3659C102.772 10.7363 102.301 10.2488 101.697 9.90313C101.093 9.54517 100.417 9.36618 99.6684 9.36618C98.9198 9.36618 98.2437 9.54517 97.6399 9.90313C97.0362 10.2488 96.5593 10.7363 96.2091 11.3659C95.8711 11.9954 95.702 12.7113 95.702 13.5137C95.702 14.316 95.8711 15.0319 96.2091 15.6615C96.5593 16.291 97.0362 16.7848 97.6399 17.1427C98.2437 17.4883 98.9198 17.6612 99.6684 17.6612Z" fill="#404040"/>
<path d="M120.8 7.03322V19.9941H118.391L112.07 12.125V19.9941H109.172V7.03322H111.599L117.902 14.9023V7.03322H120.8Z" fill="#404040"/>
<defs>
<linearGradient id="paint0_linear" x1="0.571533" y1="0.527344" x2="42.0441" y2="42" gradientUnits="userSpaceOnUse">
<stop stop-color="#1DC4F4"/>
<stop offset="1" stop-color="#05AEF1"/>
</linearGradient>
</defs>
</svg>
