<svg width="135" height="37" viewBox="0 0 135 37" fill="none" xmlns="http://www.w3.org/2000/svg">
<path d="M1.49848 32.7127V26.9469H0.241821V34.7086H1.35064L4.75102 29.1645V34.7086H5.93376V26.9469H4.89886L1.49848 32.7127ZM11.8475 31.2343H9.18629V29.0167H8.00355V34.7086H9.18629V32.2692H11.8475V34.7086H13.0302V29.0167H11.8475V31.2343ZM14.4347 30.1255H16.5784V34.7086H17.7612V30.1255H19.831V29.0167H14.4347V30.1255ZM31.8801 28.9428C31.5465 28.9373 31.2166 29.0134 30.9191 29.1645C30.6042 29.2929 30.3252 29.4958 30.106 29.7559L29.8103 30.0516V29.1645H28.6276V37.0002H29.8103V33.8955L30.106 34.1912C30.3527 34.3992 30.6262 34.5732 30.9191 34.7086C31.2063 34.7997 31.505 34.8495 31.8062 34.8565C32.172 34.8588 32.5339 34.7805 32.8661 34.6272C33.1983 34.4739 33.4926 34.2493 33.7282 33.9694C34.2528 33.3787 34.5422 32.6158 34.5413 31.8257C34.5553 31.4322 34.4906 31.0399 34.351 30.6718C34.2113 30.3037 33.9996 29.9672 33.7282 29.682C33.2331 29.2025 32.5693 28.9369 31.8801 28.9428ZM32.915 33.3041C32.7448 33.4877 32.5392 33.6347 32.3104 33.7364C32.0817 33.838 31.8347 33.8922 31.5844 33.8955C31.3317 33.9089 31.0794 33.8623 30.8482 33.7595C30.6169 33.6567 30.4133 33.5007 30.2539 33.3041C30.0794 33.1156 29.9439 32.8945 29.8551 32.6534C29.7663 32.4124 29.726 32.1563 29.7364 31.8996C29.7195 31.6423 29.7568 31.3843 29.8459 31.1424C29.9351 30.9004 30.074 30.6799 30.2539 30.4951C30.428 30.3218 30.6361 30.1863 30.865 30.0973C31.094 30.0082 31.339 29.9675 31.5844 29.9777C31.8372 29.9643 32.0894 30.0109 32.3207 30.1137C32.5519 30.2165 32.7556 30.3725 32.915 30.569C33.0948 30.7538 33.2338 30.9744 33.323 31.2163C33.4121 31.4583 33.4494 31.7162 33.4325 31.9735C33.4321 32.4661 33.2475 32.9407 32.915 33.3041ZM40.0854 31.2343H37.4242V29.0167H36.2415V34.7086H37.4242V32.2692H40.0854V34.7086H41.2681V29.0167H40.0854V31.2343ZM50.0648 30.1255H52.2085V34.7086H53.3912V30.1255H55.3871V29.0167H50.0648V30.1255ZM57.0134 31.3822H59.5267V32.491H57.0134V31.3822ZM64.849 28.9428C64.3782 28.9159 63.9118 29.0466 63.5236 29.3144C63.1354 29.5821 62.8475 29.9716 62.7053 30.4212L62.3357 31.3082V30.3473C62.3537 29.9204 62.4282 29.4978 62.5574 29.0906C62.7139 28.7721 62.9416 28.4939 63.2227 28.2775C63.5512 28.0424 63.9316 27.8903 64.3316 27.8339C64.8953 27.7632 65.464 27.7385 66.0317 27.76C66.4029 27.7722 66.7743 27.7475 67.1406 27.6861V26.6512C66.8449 26.6512 66.4014 26.7251 65.8839 26.7251C65.1666 26.718 64.4498 26.7674 63.7402 26.873C63.2934 26.9677 62.8675 27.1431 62.4835 27.3904C62.0924 27.6871 61.8073 28.1018 61.6704 28.5732C61.408 29.2566 61.2824 29.985 61.3008 30.7169C61.2972 31.3641 61.3717 32.0094 61.5225 32.6388C61.6966 33.2518 62.0586 33.7947 62.5574 34.1912C63.0747 34.6258 63.7299 34.8617 64.4055 34.8565C64.816 34.8666 65.2242 34.7932 65.6055 34.6408C65.9867 34.4884 66.3331 34.26 66.6234 33.9697C66.9137 33.6794 67.1421 33.333 67.2945 32.9518C67.4469 32.5705 67.5203 32.1623 67.5102 31.7518C67.5244 31.3694 67.4595 30.9882 67.3196 30.632C67.1797 30.2759 66.9678 29.9524 66.697 29.682C66.4538 29.4418 66.165 29.2528 65.8476 29.1258C65.5303 28.9989 65.1908 28.9366 64.849 28.9428ZM65.81 33.3041C65.4471 33.6376 64.9722 33.8227 64.4794 33.8227C63.9866 33.8227 63.5117 33.6376 63.1488 33.3041C62.969 33.1193 62.83 32.8988 62.7409 32.6568C62.6517 32.4149 62.6144 32.1569 62.6314 31.8996C62.6456 31.4097 62.8283 30.9398 63.1488 30.569C63.319 30.3855 63.5247 30.2384 63.7534 30.1368C63.9821 30.0351 64.2291 29.981 64.4794 29.9777C64.7329 29.9573 64.9875 30.0007 65.22 30.104C65.4524 30.2073 65.6552 30.3672 65.81 30.569C65.9833 30.7431 66.1188 30.9512 66.2078 31.1802C66.2969 31.4092 66.3376 31.6541 66.3274 31.8996C66.3379 32.1563 66.2975 32.4124 66.2087 32.6534C66.1199 32.8945 65.9844 33.1156 65.81 33.3041ZM71.5019 33.0824V33.0084L69.8017 29.0167H68.619L70.8366 34.4869L69.6539 36.9263H70.9105L74.6066 29.0167H73.35L71.5019 33.0824ZM80.816 29.0167H79.4854L78.2288 30.7908L76.8982 29.0167H75.4937L77.4895 31.7518L75.2719 34.7086H76.6764L78.2288 32.6388L79.7072 34.7086H81.1117L78.8201 31.6779L80.816 29.0167ZM82.3683 34.7086H83.5511V30.1255H85.6209V29.0167H82.3683V34.7086ZM91.5346 29.9777L91.2389 29.682C91.0198 29.4219 90.7407 29.219 90.4258 29.0906C90.1255 28.9474 89.7975 28.8717 89.4648 28.8688C89.1064 28.8691 88.7516 28.9413 88.4215 29.0809C88.0914 29.2206 87.7926 29.4249 87.5428 29.682C87.0182 30.2727 86.7288 31.0356 86.7297 31.8257C86.715 32.6182 87.0062 33.386 87.5428 33.9694C87.7784 34.2493 88.0727 34.4739 88.4049 34.6272C88.7371 34.7805 89.0989 34.8588 89.4648 34.8565C89.766 34.8495 90.0647 34.7997 90.3518 34.7086C90.6668 34.5803 90.9458 34.3773 91.165 34.1173L91.4607 33.8216V34.7086H92.6434V29.0167H91.4607V29.9777H91.5346ZM91.0911 33.3041C90.9209 33.4877 90.7152 33.6347 90.4865 33.7364C90.2577 33.838 90.0107 33.8922 89.7605 33.8955C89.5078 33.9089 89.2555 33.8623 89.0242 33.7595C88.793 33.6567 88.5893 33.5007 88.4299 33.3041C88.0961 32.9123 87.9128 32.4144 87.9128 31.8996C87.9128 31.3849 88.0961 30.887 88.4299 30.4951C88.6001 30.3116 88.8058 30.1645 89.0345 30.0629C89.2632 29.9612 89.5102 29.9071 89.7605 29.9037C90.006 29.8936 90.2509 29.9343 90.4799 30.0233C90.7088 30.1124 90.9169 30.2478 91.0911 30.4212C91.2709 30.606 91.4099 30.8265 91.499 31.0685C91.5881 31.3104 91.6254 31.5684 91.6085 31.8257C91.6318 32.0947 91.5978 32.3656 91.5086 32.6205C91.4194 32.8753 91.2771 33.1084 91.0911 33.3041ZM96.4873 29.0167L93.974 34.7086H95.1567L96.8569 30.643L98.5571 34.7086H99.7398L97.2265 29.0167H96.4873ZM100.405 30.1255H102.549V34.7086H103.806V30.1255H105.801V29.0167H100.405V30.1255ZM117.851 28.9428C117.517 28.9373 117.187 29.0134 116.89 29.1645C116.575 29.2929 116.296 29.4958 116.076 29.7559L115.781 30.0516V29.1645H114.598V37.0002H115.781V33.8955L116.076 34.1912C116.337 34.4174 116.638 34.5929 116.963 34.7086C117.252 34.7938 117.55 34.8435 117.851 34.8565C118.216 34.8588 118.578 34.7805 118.91 34.6272C119.243 34.4739 119.537 34.2493 119.772 33.9694C120.297 33.3787 120.587 32.6158 120.586 31.8257C120.6 31.4322 120.535 31.0399 120.395 30.6718C120.256 30.3037 120.044 29.9672 119.772 29.682C119.249 29.2012 118.562 28.937 117.851 28.9428ZM118.885 33.3041C118.715 33.4877 118.51 33.6347 118.281 33.7364C118.052 33.838 117.805 33.8922 117.555 33.8955C117.302 33.9089 117.05 33.8623 116.819 33.7595C116.587 33.6567 116.384 33.5007 116.224 33.3041C116.05 33.1156 115.914 32.8945 115.826 32.6534C115.737 32.4124 115.696 32.1563 115.707 31.8996C115.69 31.6423 115.727 31.3843 115.816 31.1424C115.905 30.9004 116.044 30.6799 116.224 30.4951C116.398 30.3218 116.606 30.1863 116.835 30.0973C117.064 30.0082 117.309 29.9675 117.555 29.9777C117.808 29.9643 118.06 30.0109 118.291 30.1137C118.522 30.2165 118.726 30.3725 118.885 30.569C119.065 30.7538 119.204 30.9744 119.293 31.2163C119.383 31.4583 119.42 31.7162 119.403 31.9735C119.42 32.2197 119.382 32.4666 119.293 32.6966C119.203 32.9266 119.064 33.134 118.885 33.3041ZM123.395 32.8606V29.0167H122.212V34.7086H122.803L126.13 31.0126V34.7086H127.312V29.0167H126.795L123.395 32.8606ZM130.269 29.1645C129.94 29.266 129.654 29.474 129.456 29.7559C129.214 30.0748 129.084 30.4645 129.087 30.8647C129.071 31.1869 129.177 31.5033 129.382 31.7518C129.46 31.8866 129.567 32.0027 129.695 32.0921C129.822 32.1814 129.968 32.2419 130.121 32.2692L130.343 32.3431V32.4171L128.717 34.7825H130.121L131.6 32.5649H132.191V34.7825H133.374V29.0906H131.97C131.402 29.0285 130.829 29.0535 130.269 29.1645ZM132.117 31.7518H131.526C130.565 31.7518 130.343 31.2343 130.343 30.8647C130.343 30.4951 130.491 29.9777 131.378 29.9777H132.117V31.7518ZM109.941 28.8688C109.542 28.8645 109.147 28.9409 108.778 29.0933C108.41 29.2458 108.076 29.4712 107.797 29.7559C107.24 30.3018 106.921 31.0458 106.91 31.8257C106.91 32.6295 107.23 33.4004 107.798 33.9688C108.366 34.5372 109.137 34.8565 109.941 34.8565C110.548 34.8678 111.143 34.6867 111.641 34.339C112.096 34.0565 112.456 33.6447 112.676 33.1563H111.493C111.334 33.3993 111.114 33.5957 110.854 33.7256C110.594 33.8555 110.305 33.9141 110.015 33.8955C109.558 33.8948 109.115 33.7384 108.758 33.452C108.428 33.1596 108.195 32.7724 108.093 32.3431L108.019 32.1214H112.898V31.9735C112.9 31.1387 112.612 30.329 112.085 29.682C111.8 29.4105 111.463 29.1988 111.095 29.0592C110.727 28.9195 110.334 28.8548 109.941 28.8688ZM108.093 31.4561L108.167 31.2343C108.255 30.8173 108.49 30.4458 108.829 30.1879C109.169 29.93 109.59 29.8029 110.015 29.8298C110.435 29.7897 110.854 29.9134 111.184 30.1752C111.515 30.437 111.732 30.8165 111.789 31.2343L111.863 31.4561H108.093ZM23.9705 28.8688C23.1667 28.8688 22.3958 29.1882 21.8275 29.7565C21.2591 30.3249 20.9398 31.0958 20.9398 31.8996C20.9398 32.7034 21.2591 33.4743 21.8275 34.0427C22.3958 34.6111 23.1667 34.9304 23.9705 34.9304C24.5777 34.9418 25.1729 34.7606 25.6707 34.4129C26.1257 34.1305 26.4861 33.7186 26.7056 33.2302H25.5229C25.3639 33.4732 25.1433 33.6697 24.8835 33.7995C24.6238 33.9294 24.3343 33.988 24.0445 33.9694C23.5873 33.9687 23.1441 33.8123 22.7878 33.5259C22.4572 33.2336 22.2249 32.8463 22.1225 32.4171L22.0486 32.1953H26.9274V32.0475C26.9291 31.2126 26.6418 30.4029 26.1143 29.7559C25.8438 29.46 25.5116 29.2271 25.1411 29.0738C24.7707 28.9205 24.371 28.8505 23.9705 28.8688ZM22.1225 31.4561L22.1964 31.2343C22.2844 30.8173 22.5195 30.4458 22.8589 30.1879C23.1982 29.93 23.6191 29.8029 24.0445 29.8298C24.4643 29.7897 24.8834 29.9134 25.2141 30.1752C25.5447 30.437 25.7613 30.8165 25.8186 31.2343L25.8925 31.4561H22.1225ZM45.9252 28.8688C45.5265 28.8645 45.1311 28.9409 44.7627 29.0933C44.3943 29.2458 44.0605 29.4712 43.7814 29.7559C43.2243 30.3018 42.9055 31.0458 42.8944 31.8257C42.8944 32.6295 43.2137 33.4004 43.7821 33.9688C44.3505 34.5372 45.1213 34.8565 45.9252 34.8565C46.5323 34.8678 47.1275 34.6867 47.6254 34.339C48.0803 34.0565 48.4407 33.6447 48.6602 33.1563H47.4775C47.3185 33.3993 47.0979 33.5957 46.8382 33.7256C46.5784 33.8555 46.2889 33.9141 45.9991 33.8955C45.542 33.8948 45.0987 33.7384 44.7424 33.452C44.4118 33.1596 44.1795 32.7724 44.0771 32.3431L44.0032 32.1214H48.882V31.9735C48.8837 31.1387 48.5964 30.329 48.0689 29.682C47.4743 29.1638 46.7139 28.8753 45.9252 28.8688ZM44.0771 31.4561L44.1511 31.2343C44.239 30.8173 44.4742 30.4458 44.8135 30.1879C45.1528 29.93 45.5737 29.8029 45.9991 29.8298C46.4189 29.7897 46.838 29.9134 47.1687 30.1752C47.4993 30.437 47.716 30.8165 47.7732 31.2343L47.8471 31.4561H44.0771ZM17.9829 0.778763H17.2437L10.5908 18.2981L3.93788 0.778763H0.241821V22.2159H3.19867V6.61854L9.11237 22.2159H12.0692L17.9829 6.61854V22.2159H20.9398V0.778763H17.9829ZM31.2888 22.2159C32.897 22.2159 34.4691 21.739 35.8063 20.8456C37.1435 19.9521 38.1857 18.6821 38.8011 17.1963C39.4166 15.7105 39.5776 14.0756 39.2639 12.4982C38.9501 10.9209 38.1757 9.47205 37.0385 8.33487C35.9013 7.19768 34.4524 6.42324 32.8751 6.10949C31.2978 5.79574 29.6628 5.95677 28.177 6.57221C26.6912 7.18765 25.4213 8.22987 24.5278 9.56706C23.6343 10.9043 23.1574 12.4764 23.1574 14.0846C23.1574 16.2412 24.0141 18.3094 25.539 19.8343C27.0639 21.3592 29.1322 22.2159 31.2888 22.2159ZM31.2888 8.9101C32.3122 8.9101 33.3126 9.21358 34.1635 9.78216C35.0145 10.3507 35.6777 11.1589 36.0694 12.1044C36.461 13.0499 36.5635 14.0903 36.3638 15.0941C36.1642 16.0978 35.6713 17.0198 34.9477 17.7435C34.224 18.4672 33.302 18.96 32.2982 19.1597C31.2945 19.3593 30.2541 19.2568 29.3086 18.8652C28.363 18.4736 27.5549 17.8103 26.9863 16.9594C26.4177 16.1084 26.1143 15.108 26.1143 14.0846C26.1143 12.7122 26.6594 11.3961 27.6298 10.4257C28.6002 9.45527 29.9164 8.9101 31.2888 8.9101ZM125.908 22.2159C127.516 22.2159 129.088 21.739 130.425 20.8456C131.763 19.9521 132.805 18.6821 133.42 17.1963C134.036 15.7105 134.197 14.0756 133.883 12.4982C133.569 10.9209 132.795 9.47205 131.658 8.33487C130.521 7.19768 129.072 6.42324 127.494 6.10949C125.917 5.79574 124.282 5.95677 122.796 6.57221C121.31 7.18765 120.04 8.22987 119.147 9.56706C118.254 10.9043 117.777 12.4764 117.777 14.0846C117.777 16.2412 118.633 18.3094 120.158 19.8343C121.683 21.3592 123.751 22.2159 125.908 22.2159ZM125.908 8.9101C126.931 8.9101 127.932 9.21358 128.783 9.78216C129.634 10.3507 130.297 11.1589 130.689 12.1044C131.08 13.0499 131.183 14.0903 130.983 15.0941C130.783 16.0978 130.291 17.0198 129.567 17.7435C128.843 18.4672 127.921 18.96 126.917 19.1597C125.914 19.3593 124.873 19.2568 123.928 18.8652C122.982 18.4736 122.174 17.8103 121.606 16.9594C121.037 16.1084 120.733 15.108 120.733 14.0846C120.733 12.7122 121.279 11.3961 122.249 10.4257C123.219 9.45527 124.536 8.9101 125.908 8.9101ZM71.9454 22.2159H84.5121V19.2591H82.664L77.8591 5.95325H74.9023L70.0974 19.2591H68.2494V22.2159H71.9454ZM76.3807 10.0189L79.7072 19.2591H72.9803L76.3807 10.0189ZM111.124 5.95325H108.167L102.253 22.2159H105.21L109.645 10.0189L114.081 22.2159H117.037L111.124 5.95325ZM46.073 2.9964H53.4651V4.47483H46.073V2.9964ZM46.073 0.0395508H53.4651V1.51798H46.073V0.0395508ZM54.2043 17.7067C53.724 18.2003 53.1492 18.5922 52.5142 18.8589C51.8792 19.1256 51.197 19.2617 50.5083 19.2591H49.7691C48.6558 19.2578 47.5726 18.8974 46.6804 18.2316C45.7881 17.5658 45.1344 16.6299 44.8163 15.563H57.7526C57.8421 15.0751 57.8915 14.5806 57.9004 14.0846C57.9004 12.4764 57.4235 10.9043 56.53 9.56706C55.6365 8.22987 54.3666 7.18765 52.8808 6.57221C51.395 5.95677 49.76 5.79574 48.1827 6.10949C46.6054 6.42324 45.1565 7.19768 44.0193 8.33487C42.8822 9.47205 42.1077 10.9209 41.794 12.4982C41.4802 14.0756 41.6413 15.7105 42.2567 17.1963C42.8721 18.6821 43.9143 19.9521 45.2515 20.8456C46.5887 21.739 48.1608 22.2159 49.7691 22.2159H50.5083C51.8164 22.2227 53.1063 21.9097 54.2658 21.3041C55.4253 20.6986 56.4192 19.8189 57.1612 18.7416L54.2043 17.7067ZM49.7691 8.9101C50.8824 8.91141 51.9655 9.27174 52.8578 9.93758C53.75 10.6034 54.4037 11.5393 54.7218 12.6062H44.8163C45.1344 11.5393 45.7881 10.6034 46.6804 9.93758C47.5726 9.27174 48.6558 8.91141 49.7691 8.9101ZM97.8179 17.7067C97.3376 18.2003 96.7628 18.5922 96.1278 18.8589C95.4928 19.1256 94.8106 19.2617 94.1218 19.2591H93.3826C92.2693 19.2578 91.1861 18.8974 90.2939 18.2316C89.4017 17.5658 88.748 16.6299 88.4299 15.563H101.366C101.456 15.0751 101.505 14.5806 101.514 14.0846C101.514 12.4764 101.037 10.9043 100.144 9.56706C99.2501 8.22987 97.9801 7.18765 96.4943 6.57221C95.0085 5.95677 93.3736 5.79574 91.7963 6.10949C90.2189 6.42324 88.7701 7.19768 87.6329 8.33487C86.4957 9.47205 85.7213 10.9209 85.4075 12.4982C85.0938 14.0756 85.2548 15.7105 85.8702 17.1963C86.4857 18.6821 87.5279 19.9521 88.8651 20.8456C90.2023 21.739 91.7744 22.2159 93.3826 22.2159H94.1218C95.4299 22.2227 96.7198 21.9097 97.8793 21.3041C99.0388 20.6986 100.033 19.8189 100.775 18.7416L97.8179 17.7067ZM93.3826 8.9101C94.4959 8.91141 95.5791 9.27174 96.4713 9.93758C97.3636 10.6034 98.0173 11.5393 98.3353 12.6062H88.4299C88.748 11.5393 89.4017 10.6034 90.2939 9.93758C91.1861 9.27174 92.2693 8.91141 93.3826 8.9101Z" fill="#E95A43"/>
</svg>
