<svg width="232" height="40" viewBox="0 0 232 40" fill="none" xmlns="http://www.w3.org/2000/svg">
<path d="M30.6584 2.12357H29.3816L17.8896 32.3858L6.39757 2.12357H0.0131226V39.1533H5.12068V12.211L15.3358 39.1533H20.4433L30.6584 12.211V39.1533H35.766V2.12357H30.6584ZM53.6424 39.1533C56.4204 39.1533 59.136 38.3296 61.4459 36.7862C63.7557 35.2428 65.556 33.0492 66.619 30.4826C67.6821 27.9161 67.9603 25.092 67.4183 22.3674C66.8764 19.6428 65.5386 17.14 63.5743 15.1757C61.61 13.2114 59.1073 11.8736 56.3826 11.3317C53.658 10.7897 50.8339 11.0679 48.2674 12.131C45.7008 13.1941 43.5072 14.9943 41.9638 17.3041C40.4204 19.614 39.5967 22.3296 39.5967 25.1076C39.5967 28.8327 41.0765 32.4053 43.7106 35.0394C46.3447 37.6735 49.9173 39.1533 53.6424 39.1533ZM53.6424 16.1693C55.4103 16.1693 57.1384 16.6936 58.6083 17.6757C60.0781 18.6578 61.2238 20.0538 61.9003 21.6871C62.5768 23.3203 62.7538 25.1175 62.4089 26.8513C62.064 28.5852 61.2128 30.1778 59.9627 31.4278C58.7127 32.6779 57.12 33.5292 55.3862 33.874C53.6524 34.2189 51.8552 34.0419 50.2219 33.3654C48.5887 32.6889 47.1927 31.5433 46.2106 30.0734C45.2284 28.6035 44.7042 26.8754 44.7042 25.1076C44.7042 22.737 45.6459 20.4635 47.3222 18.7873C48.9984 17.111 51.2719 16.1693 53.6424 16.1693ZM217.084 39.1533C219.862 39.1533 222.578 38.3296 224.888 36.7862C227.197 35.2428 228.998 33.0492 230.061 30.4826C231.124 27.9161 231.402 25.092 230.86 22.3674C230.318 19.6428 228.98 17.14 227.016 15.1757C225.052 13.2114 222.549 11.8736 219.824 11.3317C217.1 10.7897 214.276 11.0679 211.709 12.131C209.143 13.1941 206.949 14.9943 205.406 17.3041C203.862 19.614 203.038 22.3296 203.038 25.1076C203.038 28.8327 204.518 32.4053 207.152 35.0394C209.786 37.6735 213.359 39.1533 217.084 39.1533ZM217.084 16.1693C218.852 16.1693 220.58 16.6936 222.05 17.6757C223.52 18.6578 224.666 20.0538 225.342 21.6871C226.019 23.3203 226.196 25.1175 225.851 26.8513C225.506 28.5852 224.654 30.1778 223.404 31.4278C222.154 32.6779 220.562 33.5292 218.828 33.874C217.094 34.2189 215.297 34.0419 213.664 33.3654C212.03 32.6889 210.634 31.5433 209.652 30.0734C208.67 28.6035 208.146 26.8754 208.146 25.1076C208.146 22.737 209.088 20.4635 210.764 18.7873C212.44 17.111 214.714 16.1693 217.084 16.1693ZM123.871 39.1533H145.578V34.0458H142.386L134.086 11.0618H128.979L120.679 34.0458H117.487V39.1533H123.871ZM131.533 18.0847L137.279 34.0458H125.659L131.533 18.0847ZM191.546 11.0618H186.439L176.224 39.1533H181.331L188.993 18.0847L196.654 39.1533H201.762L191.546 11.0618ZM79.1802 5.95423H91.9491V8.50801H79.1802V5.95423ZM79.1802 0.84668H91.9491V3.40046H79.1802V0.84668ZM93.226 31.3643C92.3963 32.217 91.4034 32.8938 90.3065 33.3545C89.2096 33.8152 88.0312 34.0503 86.8415 34.0458H85.5647C83.6416 34.0435 81.7705 33.4211 80.2293 32.271C78.6881 31.1208 77.559 29.5042 77.0095 27.6613H99.3551C99.5097 26.8185 99.5951 25.9644 99.6104 25.1076C99.6104 22.3296 98.7867 19.614 97.2433 17.3041C95.6999 14.9943 93.5063 13.1941 90.9397 12.131C88.3732 11.0679 85.5491 10.7897 82.8245 11.3317C80.0998 11.8736 77.5971 13.2114 75.6328 15.1757C73.6685 17.14 72.3307 19.6428 71.7888 22.3674C71.2468 25.092 71.525 27.9161 72.5881 30.4826C73.6511 33.0492 75.4514 35.2428 77.7612 36.7862C80.0711 38.3296 82.7867 39.1533 85.5647 39.1533H86.8415C89.1011 39.165 91.3292 38.6243 93.3321 37.5784C95.335 36.5324 97.0519 35.0129 98.3335 33.152L93.226 31.3643ZM85.5647 16.1693C87.4877 16.1716 89.3588 16.794 90.9 17.9442C92.4412 19.0943 93.5704 20.7109 94.1198 22.5538H77.0095C77.559 20.7109 78.6881 19.0943 80.2293 17.9442C81.7705 16.794 83.6416 16.1716 85.5647 16.1693ZM168.562 31.3643C167.733 32.217 166.74 32.8938 165.643 33.3545C164.546 33.8152 163.368 34.0503 162.178 34.0458H160.901C158.978 34.0435 157.107 33.4211 155.566 32.271C154.025 31.1208 152.895 29.5042 152.346 27.6613H174.691C174.846 26.8185 174.931 25.9644 174.947 25.1076C174.947 22.3296 174.123 19.614 172.58 17.3041C171.036 14.9943 168.843 13.1941 166.276 12.131C163.71 11.0679 160.885 10.7897 158.161 11.3317C155.436 11.8736 152.934 13.2114 150.969 15.1757C149.005 17.14 147.667 19.6428 147.125 22.3674C146.583 25.092 146.861 27.9161 147.924 30.4826C148.988 33.0492 150.788 35.2428 153.098 36.7862C155.407 38.3296 158.123 39.1533 160.901 39.1533H162.178C164.437 39.165 166.666 38.6243 168.669 37.5784C170.671 36.5324 172.388 35.0129 173.67 33.152L168.562 31.3643ZM160.901 16.1693C162.824 16.1716 164.695 16.794 166.236 17.9442C167.778 19.0943 168.907 20.7109 169.456 22.5538H152.346C152.895 20.7109 154.025 19.0943 155.566 17.9442C157.107 16.794 158.978 16.1716 160.901 16.1693Z" fill="#E95A43"/>
</svg>
