<svg width="25" height="25" viewBox="0 0 25 25" fill="none" xmlns="http://www.w3.org/2000/svg">
<g clip-path="url(#clip0)">
<path d="M14.9718 0.5H10.1712C5.53874 0.5 1.77008 4.26866 1.77008 8.90108V12.5015C1.77008 15.7538 3.64574 18.7052 6.57069 20.0935V24.103C6.57069 24.4512 7.00621 24.6332 7.25361 24.3859L10.7368 20.9026H14.9717C19.6041 20.9026 23.3728 17.134 23.3728 12.5015V8.90108C23.3728 4.26866 19.6041 0.5 14.9718 0.5Z" fill="#665CAC"/>
<path d="M7.77083 20.0934C4.84588 18.7051 2.97022 15.7537 2.97022 12.5015V8.90103C2.97022 4.26866 6.73892 0.5 11.3713 0.5H10.1712C5.53874 0.5 1.77008 4.26866 1.77008 8.90108V12.5015C1.77008 15.7538 3.64574 18.7052 6.57069 20.0935V24.103C6.57069 24.4512 7.00621 24.6332 7.25361 24.3859L7.77083 23.8687V20.0934Z" fill="#523494"/>
<path d="M18.6114 15.4111L18.2517 13.4627C18.222 13.3017 18.0973 13.1751 17.9368 13.143L15.108 12.5772C14.9766 12.5511 14.8413 12.5921 14.7466 12.6866L13.5974 13.8359C11.6611 12.9683 10.5864 11.8913 9.64086 9.87189L10.7864 8.72641C10.8809 8.63181 10.922 8.49616 10.8958 8.365L10.3301 5.53619C10.298 5.37574 10.1713 5.25096 10.0104 5.22124L8.06197 4.86161C8.00863 4.85181 7.95369 4.85285 7.90072 4.86489C7.38627 4.98175 6.91686 5.24097 6.54322 5.6147C5.89625 6.26167 5.64899 7.20574 5.82824 8.34485C6.12913 10.2576 7.06625 12.9196 8.79524 14.6555L8.81886 14.6789C10.5534 16.4067 13.2154 17.3439 15.1283 17.6448C15.3693 17.6828 15.6013 17.7016 15.8239 17.7016C16.6534 17.7016 17.3483 17.44 17.8585 16.9298C18.2322 16.5561 18.4915 16.0867 18.6083 15.5724C18.6201 15.5193 18.6213 15.4645 18.6114 15.4111Z" fill="white"/>
<path d="M10.3951 9.11742L10.7862 8.72625L10.7866 8.72583L10.395 9.11738L10.3951 9.11742Z" fill="#E5E5E5"/>
<path d="M14.7466 12.6861L14.3516 13.0811L14.3517 13.0811L14.7467 12.6862L14.7466 12.6861Z" fill="#E5E5E5"/>
<path d="M16.578 16.9469C16.3554 16.9469 16.1234 16.9282 15.8824 16.8902C13.9696 16.5892 11.3076 15.652 9.57296 13.9243L9.54934 13.9008C7.82035 12.1649 6.88323 9.50296 6.58234 7.59018C6.43754 6.66989 6.57141 5.877 6.96934 5.26514C6.81695 5.36681 6.67393 5.48343 6.54291 5.61445C5.89595 6.26142 5.64868 7.20548 5.82793 8.34459C6.12882 10.2574 7.06595 12.9193 8.79493 14.6552L8.81856 14.6787C10.5531 16.4064 13.2151 17.3437 15.128 17.6446C15.369 17.6826 15.601 17.7014 15.8236 17.7014C16.6531 17.7014 17.348 17.4397 17.8582 16.9296C17.9892 16.7985 18.1058 16.6556 18.2075 16.5032C17.7557 16.797 17.2054 16.9469 16.578 16.9469Z" fill="#E5E5E5"/>
<path d="M13.3716 7.30103C13.1507 7.30103 12.9716 7.48013 12.9716 7.70106C12.9716 7.92198 13.1507 8.10109 13.3716 8.10109C14.254 8.10109 14.9719 8.81893 14.9719 9.70131C14.9719 9.91928 15.1539 10.1013 15.3719 10.1013C15.5899 10.1013 15.7719 9.91928 15.7719 9.70131C15.772 8.37774 14.6952 7.30103 13.3716 7.30103Z" fill="white"/>
<path d="M13.3716 5.70068C13.2237 5.70068 13.0743 5.70889 12.9277 5.72506C12.7081 5.74929 12.5497 5.94696 12.5739 6.16662C12.5982 6.38628 12.7962 6.54425 13.0155 6.52039C13.133 6.5074 13.2529 6.50079 13.3716 6.50079C15.1363 6.50079 16.572 7.93648 16.572 9.70118C16.572 9.82001 16.5654 9.93982 16.5524 10.0574C16.5285 10.274 16.6895 10.4751 16.9062 10.4989C17.1228 10.5228 17.3238 10.3619 17.3478 10.1452C17.3639 9.99856 17.3721 9.84921 17.3721 9.70118C17.3721 7.49534 15.5775 5.70068 13.3716 5.70068Z" fill="white"/>
<path d="M13.372 4.10059C13.2291 4.10059 13.0843 4.10602 12.9418 4.11685C12.7215 4.13354 12.5564 4.32573 12.5731 4.54599C12.5897 4.7663 12.7825 4.9314 13.0022 4.91471C13.1247 4.90538 13.2491 4.9007 13.372 4.9007C16.0191 4.9007 18.1727 7.05423 18.1727 9.70131C18.1727 10.0758 18.1294 10.4487 18.0442 10.8094C17.9953 11.0161 18.1226 11.231 18.3276 11.2872C18.5433 11.3462 18.7715 11.211 18.8229 10.9935C18.9223 10.5725 18.9728 10.1378 18.9728 9.70131C18.9728 6.61304 16.4603 4.10059 13.372 4.10059Z" fill="white"/>
</g>
<defs>
<clipPath id="clip0">
<rect width="24" height="24" fill="white" transform="translate(0.571533 0.5)"/>
</clipPath>
</defs>
</svg>
