<svg width="25" height="25" viewBox="0 0 25 25" fill="none" xmlns="http://www.w3.org/2000/svg">
<g clip-path="url(#clip0)">
<path d="M12.5745 0.5H12.5685C5.95203 0.5 0.571533 5.882 0.571533 12.5C0.571533 15.125 1.41753 17.558 2.85603 19.5335L1.36053 23.9915L5.97303 22.517C7.87053 23.774 10.134 24.5 12.5745 24.5C19.191 24.5 24.5715 19.1165 24.5715 12.5C24.5715 5.8835 19.191 0.5 12.5745 0.5Z" fill="#4CAF50"/>
<path d="M19.557 17.4455C19.2675 18.263 18.1185 18.941 17.202 19.139C16.575 19.2725 15.756 19.379 12.999 18.236C9.47255 16.775 7.20155 13.1915 7.02455 12.959C6.85505 12.7265 5.59955 11.0615 5.59955 9.33953C5.59955 7.61753 6.47405 6.77903 6.82655 6.41903C7.11605 6.12353 7.59455 5.98853 8.05355 5.98853C8.20205 5.98853 8.33555 5.99603 8.45555 6.00203C8.80805 6.01703 8.98505 6.03803 9.21755 6.59453C9.50705 7.29203 10.212 9.01403 10.296 9.19103C10.3815 9.36803 10.467 9.60803 10.347 9.84053C10.2345 10.0805 10.1355 10.187 9.95855 10.391C9.78155 10.595 9.61355 10.751 9.43655 10.97C9.27455 11.1605 9.09155 11.3645 9.29555 11.717C9.49955 12.062 10.2045 13.2125 11.2425 14.1365C12.582 15.329 13.668 15.71 14.0565 15.872C14.346 15.992 14.691 15.9635 14.9025 15.7385C15.171 15.449 15.5025 14.969 15.84 14.4965C16.08 14.1575 16.383 14.1155 16.701 14.2355C17.025 14.348 18.7395 15.1955 19.092 15.371C19.4445 15.548 19.677 15.632 19.7625 15.7805C19.8465 15.929 19.8465 16.6265 19.557 17.4455Z" fill="#FAFAFA"/>
</g>
<defs>
<clipPath id="clip0">
<rect width="24" height="24" fill="white" transform="translate(0.571533 0.5)"/>
</clipPath>
</defs>
</svg>
