<svg width="25" height="25" viewBox="0 0 25 25" fill="none" xmlns="http://www.w3.org/2000/svg">
<g clip-path="url(#clip0)">
<path d="M12.5715 24.5C19.1989 24.5 24.5715 19.1274 24.5715 12.5C24.5715 5.87258 19.1989 0.5 12.5715 0.5C5.94412 0.5 0.571533 5.87258 0.571533 12.5C0.571533 19.1274 5.94412 24.5 12.5715 24.5Z" fill="#039BE5"/>
<path d="M6.06255 12.24L17.6326 7.77896C18.1696 7.58496 18.6386 7.90996 18.4646 8.72196L18.4656 8.72096L16.4956 18.002C16.3496 18.66 15.9586 18.82 15.4116 18.51L12.4116 16.299L10.9646 17.693C10.8046 17.853 10.6696 17.988 10.3596 17.988L10.5726 14.935L16.1326 9.91196C16.3746 9.69896 16.0786 9.57896 15.7596 9.79096L8.88855 14.117L5.92655 13.193C5.28355 12.989 5.26955 12.55 6.06255 12.24Z" fill="white"/>
</g>
<defs>
<clipPath id="clip0">
<rect width="24" height="24" fill="white" transform="translate(0.571533 0.5)"/>
</clipPath>
</defs>
</svg>
