<svg width="121" height="121" viewBox="0 0 121 121" fill="none" xmlns="http://www.w3.org/2000/svg">
<g clip-path="url(#clip0)">
<path d="M60.5715 91.0229C59.2778 91.0229 58.2278 92.0729 58.2278 93.3667C58.2278 94.6604 59.2778 95.7104 60.5715 95.7104C61.8653 95.7104 62.9153 94.6604 62.9153 93.3667C62.9153 92.0729 61.8653 91.0229 60.5715 91.0229Z" fill="#E95A43"/>
<path d="M110.514 14.9378C104.746 12.6149 97.2477 11.3354 89.3997 11.3354C81.5516 11.3354 74.053 12.6149 68.2855 14.9378C64.8772 16.3105 62.275 17.9882 60.5715 19.8707C58.8681 17.9882 56.2658 16.3108 52.8576 14.938C47.09 12.6149 39.5915 11.3354 31.7434 11.3354C23.8954 11.3354 16.3968 12.6149 10.6293 14.9378C4.14341 17.5501 0.571533 21.265 0.571533 25.3979V81.6479C0.571533 85.7809 4.14341 89.4958 10.6293 92.1081C15.9934 94.2686 22.8554 95.5248 30.1028 95.6903V95.7104C30.1028 103.727 43.2015 109.773 60.5715 109.773C77.9415 109.773 91.0403 103.727 91.0403 95.7104V95.6903C98.2876 95.5248 105.15 94.2686 110.514 92.1081C117 89.4958 120.572 85.7809 120.572 81.6479V25.3979C120.572 21.265 117 17.5501 110.514 14.9378ZM115.884 67.5854C115.884 69.5863 113.155 71.9282 108.763 73.6975C104.008 75.6123 97.6253 76.7708 91.0403 76.9372V67.5854C91.0403 67.5787 91.0398 67.5719 91.0398 67.5653C98.2874 67.4001 105.149 66.1438 110.514 63.9831C112.619 63.1351 114.415 62.1704 115.884 61.1134L115.884 67.5854ZM58.2278 39.4604C58.2278 41.4613 55.499 43.8032 51.1063 45.5725C45.9578 47.6462 38.9003 48.8354 31.7434 48.8354C24.5865 48.8354 17.529 47.6462 12.3805 45.5725C7.98786 43.8032 5.25903 41.4613 5.25903 39.4604V32.9884C6.72786 34.0455 8.52388 35.0101 10.6293 35.8581C16.3968 38.181 23.8954 39.4604 31.7434 39.4604C39.5915 39.4604 47.09 38.181 52.8576 35.8581C54.9629 35.0101 56.759 34.0455 58.2278 32.9884V39.4604ZM10.6293 49.9206C16.3968 52.2435 23.8954 53.5229 31.7434 53.5229C39.5915 53.5229 47.09 52.2435 52.8576 49.9206C54.9629 49.0726 56.759 48.1079 58.2278 47.0509V53.5644C52.1645 53.7697 46.3497 54.7649 41.6465 56.4212C36.9292 58.0827 33.5347 60.2983 31.6888 62.8972C24.5507 62.8912 17.5159 61.7033 12.3805 59.635C7.98786 57.8657 5.25903 55.5238 5.25903 53.5229V47.0509C6.72786 48.1079 8.52388 49.0726 10.6293 49.9206ZM5.25903 61.1134C6.72786 62.1704 8.52388 63.1351 10.6293 63.9831C15.9936 66.1436 22.8559 67.3998 30.1035 67.5653C30.1035 67.5721 30.103 67.5789 30.103 67.5854V76.9372C23.5178 76.7708 17.135 75.6123 12.3808 73.6975C7.98786 71.9282 5.25903 69.5863 5.25903 67.5854V61.1134ZM35.0382 66.434C36.7752 62.3917 46.8006 58.2104 60.5715 58.2104C74.3425 58.2104 84.3679 62.3917 86.1029 66.4293C86.2712 66.8233 86.3528 67.2013 86.3528 67.5854C86.3528 69.6461 83.8124 71.935 79.5571 73.708C74.5236 75.8054 67.7811 76.9604 60.5715 76.9604C53.3619 76.9604 46.6194 75.8054 41.586 73.708C37.3307 71.935 34.7903 69.6461 34.7903 67.5854C34.7903 67.2013 34.8721 66.8233 35.0382 66.434ZM115.884 53.5229C115.884 55.5238 113.155 57.8657 108.763 59.635C103.627 61.7033 96.5929 62.8912 89.455 62.8972C87.6104 60.2997 84.2155 58.0832 79.4966 56.4212C74.7934 54.7647 68.9786 53.7697 62.9153 53.5644V47.0509C64.3841 48.1079 66.1801 49.0726 68.2855 49.9206C74.053 52.2435 81.5516 53.5229 89.3997 53.5229C97.2477 53.5229 104.746 52.2435 110.514 49.9206C112.619 49.0726 114.415 48.1079 115.884 47.0509V53.5229ZM115.884 39.4604C115.884 41.4613 113.155 43.8032 108.763 45.5725C103.614 47.6462 96.5565 48.8354 89.3997 48.8354C82.2428 48.8354 75.1853 47.6462 70.0368 45.5725C65.6441 43.8032 62.9153 41.4613 62.9153 39.4604V32.9884C64.3841 34.0455 66.1801 35.0101 68.2855 35.8581C74.053 38.181 81.5516 39.4604 89.3997 39.4604C97.2477 39.4604 104.746 38.181 110.514 35.8581C112.619 35.0101 114.415 34.0455 115.884 32.9884V39.4604ZM70.0368 19.2859C75.1853 17.2122 82.2428 16.0229 89.3997 16.0229C96.5565 16.0229 103.614 17.2122 108.763 19.2859C113.155 21.0552 115.884 23.3971 115.884 25.3979C115.884 27.3988 113.155 29.7407 108.763 31.51C103.614 33.5837 96.5565 34.7729 89.3997 34.7729C82.2428 34.7729 75.1853 33.5837 70.0368 31.51C65.6441 29.7407 62.9153 27.3988 62.9153 25.3979C62.9153 23.3971 65.6441 21.0552 70.0368 19.2859ZM12.3805 19.2859C17.529 17.2122 24.5865 16.0229 31.7434 16.0229C38.9003 16.0229 45.9578 17.2122 51.1063 19.2859C55.499 21.0552 58.2278 23.3971 58.2278 25.3979C58.2278 27.3988 55.499 29.7407 51.1063 31.51C45.9578 33.5837 38.9003 34.7729 31.7434 34.7729C24.5865 34.7729 17.529 33.5837 12.3805 31.51C7.98786 29.7407 5.25903 27.3988 5.25903 25.3979C5.25903 23.3971 7.98786 21.0552 12.3805 19.2859ZM12.3805 87.76C7.98786 85.9907 5.25903 83.6488 5.25903 81.6479V75.1759C6.72786 76.2329 8.52388 77.1976 10.6293 78.0456C15.9934 80.2061 22.8554 81.4623 30.1028 81.6278V91C23.5175 90.8333 17.1348 89.6751 12.3805 87.76ZM79.5571 101.833C74.5236 103.93 67.7811 105.085 60.5715 105.085C53.3619 105.085 46.6194 103.93 41.586 101.833C37.3307 100.06 34.7903 97.7711 34.7903 95.7104V89.3751C35.3211 89.7592 35.9078 90.141 36.5584 90.5174C40.198 92.6235 45.1501 94.1814 50.8797 95.0223C50.9952 95.0392 51.1096 95.0474 51.223 95.0474C52.3668 95.0474 53.3678 94.209 53.5389 93.0437C53.7268 91.7631 52.8409 90.5725 51.5605 90.3845C40.6679 88.7854 34.7903 84.6899 34.7903 81.6479V75.2917C40.0951 79.1734 49.4591 81.6479 60.5715 81.6479C71.684 81.6479 81.0479 79.1734 86.3528 75.2917V81.6479C86.3528 84.6899 80.4751 88.7854 69.5826 90.3845C68.3019 90.5725 67.416 91.7631 67.6042 93.0437C67.7753 94.2093 68.7763 95.0474 69.92 95.0474C70.0332 95.0474 70.1481 95.0392 70.2634 95.0223C75.9927 94.1814 80.9448 92.6237 84.5847 90.5174C85.235 90.141 85.8219 89.7592 86.3528 89.3751V95.7104C86.3528 97.7711 83.8124 100.06 79.5571 101.833ZM108.763 87.76C104.008 89.6748 97.6253 90.8333 91.0403 90.9997V81.6276C98.2876 81.4621 105.15 80.2058 110.514 78.0454C112.619 77.1974 114.415 76.2327 115.884 75.1757V81.6479C115.884 83.6488 113.155 85.9907 108.763 87.76Z" fill="#E95A43"/>
</g>
<defs>
<clipPath id="clip0">
<rect width="120" height="120" fill="white" transform="translate(0.571533 0.554199)"/>
</clipPath>
</defs>
</svg>
