<svg width="121" height="121" viewBox="0 0 121 121" fill="none" xmlns="http://www.w3.org/2000/svg">
<g clip-path="url(#clip0)">
<path d="M120.728 66.0973C119.644 55.2601 114.771 45.0433 107.006 37.3288C100.37 30.7364 92.2484 26.5 83.7023 24.6163V18.6612C87.1928 17.7985 89.7874 14.6594 89.7874 10.9283C89.7874 6.53422 86.1893 2.95947 81.7664 2.95947H64.7809C60.358 2.95947 56.7599 6.53422 56.7599 10.9283C56.7599 14.6592 59.3545 17.7982 62.8448 18.6612V24.6329C54.3248 26.5246 46.2298 30.7551 39.613 37.329C38.165 38.7676 36.8297 40.2768 35.6075 41.8452C35.5483 41.8408 35.489 41.8363 35.4286 41.8363H18.6174C17.3147 41.8363 16.2583 42.8856 16.2583 44.1801C16.2583 45.4746 17.3147 46.5239 18.6174 46.5239H32.3974C30.6677 49.4009 29.273 52.4223 28.2114 55.5325H2.53611C1.23341 55.5325 0.177002 56.5818 0.177002 57.8763C0.177002 59.1707 1.23341 60.2201 2.53611 60.2201H26.8783C26.1984 63.1852 25.8082 66.2028 25.7075 69.2289H15.2753C13.9726 69.2289 12.9162 70.2782 12.9162 71.5726C12.9162 72.8671 13.9726 73.9164 15.2753 73.9164H25.7827C25.9818 76.9502 26.4728 79.9681 27.2558 82.9252H11.9725C10.6698 82.9252 9.61342 83.9746 9.61342 85.269C9.61342 86.5635 10.6698 87.6128 11.9725 87.6128H28.7613C31.0756 93.6952 34.6924 99.396 39.613 104.285C47.3853 112.006 57.6795 116.849 68.5988 117.921C70.1573 118.074 71.7169 118.15 73.2744 118.15C82.4801 118.15 91.5687 115.503 99.2807 110.513C100.372 109.807 100.681 108.355 99.9702 107.27C99.2592 106.185 97.7977 105.879 96.7059 106.585C79.8249 117.506 57.2169 115.145 42.9492 100.97C26.2086 84.3381 26.2086 57.276 42.9492 40.6438C59.6897 24.0121 86.9286 24.0121 103.67 40.6438C117.918 54.8003 120.308 77.2423 109.352 94.0055C108.642 95.0911 108.953 96.5429 110.045 97.2477C111.138 97.9527 112.599 97.644 113.309 96.5583C119.162 87.6016 121.798 76.7838 120.728 66.0973ZM61.4781 10.9286C61.4781 9.11918 62.9596 7.64728 64.7809 7.64728H81.7664C83.5877 7.64728 85.0692 9.11918 85.0692 10.9286C85.0692 12.738 83.5877 14.2099 81.7664 14.2099H81.3432H65.2039H64.7809C62.9596 14.2099 61.4781 12.7377 61.4781 10.9286ZM67.563 23.8271V18.8975H78.9841V23.8187C75.1916 23.3706 71.3548 23.3734 67.563 23.8271Z" fill="#E95A43"/>
<path d="M105.339 100.282C104.716 100.282 104.11 100.533 103.671 100.969C103.23 101.405 102.98 102.01 102.98 102.626C102.98 103.243 103.23 103.847 103.671 104.283C104.11 104.722 104.716 104.97 105.339 104.97C105.959 104.97 106.566 104.722 107.007 104.283C107.446 103.847 107.698 103.243 107.698 102.626C107.698 102.01 107.446 101.405 107.007 100.969C106.566 100.533 105.959 100.282 105.339 100.282Z" fill="#E95A43"/>
<path d="M73.3097 34.4475C53.1303 34.4475 36.7131 50.7579 36.7131 70.8064C36.7131 90.855 53.1303 107.165 73.3097 107.165C93.489 107.165 109.906 90.855 109.906 70.8064C109.906 50.7579 93.489 34.4475 73.3097 34.4475ZM73.3097 102.478C55.7317 102.478 41.4313 88.27 41.4313 70.8064C41.4313 53.3429 55.7317 39.1351 73.3097 39.1351C90.8876 39.1351 105.188 53.3429 105.188 70.8064C105.188 88.27 90.8876 102.478 73.3097 102.478Z" fill="#E95A43"/>
<path d="M88.2323 52.6662L76.5477 64.2747C75.5705 63.7947 74.4714 63.5235 73.3096 63.5235C72.1475 63.5235 71.0486 63.7947 70.0715 64.2747L64.842 59.0792C63.9206 58.164 62.4273 58.164 61.5056 59.0792C60.5843 59.9945 60.5843 61.4786 61.5056 62.3938L66.735 67.5893C66.2516 68.5601 65.9789 69.6521 65.9789 70.8064C65.9789 74.8222 69.2673 78.0895 73.3096 78.0895C77.3519 78.0895 80.6403 74.8222 80.6403 70.8064C80.6403 69.6521 80.3673 68.5601 79.8842 67.5893L91.2258 56.3213L91.5686 55.9808C92.4898 55.0655 92.4898 53.5814 91.5686 52.6662C90.6473 51.7509 89.154 51.7509 88.2323 52.6662ZM73.3096 73.4021C71.8691 73.4021 70.6971 72.2377 70.6971 70.8066C70.6971 69.3755 71.8691 68.2111 73.3096 68.2111C74.75 68.2111 75.9221 69.3755 75.9221 70.8066C75.9221 72.2377 74.75 73.4021 73.3096 73.4021Z" fill="#E95A43"/>
<path d="M98.5326 68.4912H96.3469C95.0442 68.4912 93.9878 69.5405 93.9878 70.835C93.9878 72.1294 95.0442 73.1787 96.3469 73.1787H98.5326C99.8352 73.1787 100.892 72.1294 100.892 70.835C100.892 69.5405 99.8352 68.4912 98.5326 68.4912Z" fill="#E95A43"/>
<path d="M50.2715 68.4341H48.086C46.7834 68.4341 45.727 69.4834 45.727 70.7778C45.727 72.0723 46.7834 73.1216 48.086 73.1216H50.2715C51.5742 73.1216 52.6306 72.0723 52.6306 70.7778C52.6306 69.4834 51.5742 68.4341 50.2715 68.4341Z" fill="#E95A43"/>
<path d="M73.3383 50.2618C74.641 50.2618 75.6974 49.2125 75.6974 47.9181V45.7468C75.6974 44.4524 74.641 43.4031 73.3383 43.4031C72.0357 43.4031 70.9793 44.4524 70.9793 45.7468V47.9181C70.9793 49.2125 72.0357 50.2618 73.3383 50.2618Z" fill="#E95A43"/>
<path d="M73.2809 91.3511C71.9782 91.3511 70.9218 92.4004 70.9218 93.6948V95.8661C70.9218 97.1605 71.9782 98.2098 73.2809 98.2098C74.5835 98.2098 75.6399 97.1605 75.6399 95.8661V93.6948C75.6399 92.4004 74.5835 91.3511 73.2809 91.3511Z" fill="#E95A43"/>
<path d="M2.53607 82.9243C1.91564 82.9243 1.307 83.1751 0.868213 83.611C0.429426 84.047 0.177006 84.6517 0.177006 85.2681C0.177006 85.8868 0.42919 86.4892 0.868213 86.9251C1.30724 87.361 1.91564 87.6118 2.53607 87.6118C3.15651 87.6118 3.76515 87.361 4.2037 86.9251C4.64249 86.4892 4.89514 85.8845 4.89514 85.2681C4.89514 84.6517 4.64272 84.047 4.2037 83.611C3.76515 83.1751 3.15651 82.9243 2.53607 82.9243Z" fill="#E95A43"/>
</g>
<defs>
<clipPath id="clip0">
<rect width="120.784" height="120" fill="white" transform="translate(0.177002 0.554199)"/>
</clipPath>
</defs>
</svg>
