<svg width="121" height="121" viewBox="0 0 121 121" fill="none" xmlns="http://www.w3.org/2000/svg">
<g clip-path="url(#clip0)">
<path d="M111.993 103.797C116.506 103.797 120.177 100.126 120.177 95.613V12.2729C120.177 5.81123 114.92 0.554199 108.458 0.554199H11.8958C5.43403 0.554199 0.177002 5.81123 0.177002 12.2729V95.613C0.177002 100.126 3.84825 103.797 8.36067 103.797H10.9583V115.867H2.52075C1.2263 115.867 0.177002 116.916 0.177002 118.21C0.177002 119.505 1.2263 120.554 2.52075 120.554H117.833C119.128 120.554 120.177 119.505 120.177 118.21C120.177 116.916 119.128 115.867 117.833 115.867H109.396V103.797H111.993ZM4.8645 12.2729C4.8645 8.39592 8.01872 5.2417 11.8958 5.2417H108.458C112.335 5.2417 115.49 8.39592 115.49 12.2729V17.4292H5.09981C5.02036 17.4292 4.94185 17.4334 4.8645 17.4412V12.2729ZM25.9583 115.867H15.6458V94.7729H25.9583V115.867ZM52.2083 115.867H41.8958V68.8586H52.2083V115.867ZM78.4583 115.867H68.1458V88.6792H78.4583V115.867ZM107.052 60.6714H92.052C90.7575 60.6714 89.7083 61.7209 89.7083 63.0151V74.8508C89.7083 76.1451 90.7575 77.1946 92.052 77.1946C93.3465 77.1946 94.3958 76.1451 94.3958 74.8508V65.3589H104.708V115.867H94.3958V90.6128C94.3958 89.3186 93.3465 88.269 92.052 88.269C90.7575 88.269 89.7083 89.3186 89.7083 90.6128V115.867H83.1458V86.3354C83.1458 85.0412 82.0965 83.9917 80.802 83.9917H65.802C64.5075 83.9917 63.4583 85.0412 63.4583 86.3354V115.867H56.8958V66.5148C56.8958 65.2206 55.8465 64.1711 54.552 64.1711H39.552C38.2575 64.1711 37.2083 65.2206 37.2083 66.5148V115.867H30.6458V92.4292C30.6458 91.135 29.5965 90.0854 28.302 90.0854H13.302C12.0075 90.0854 10.9583 91.135 10.9583 92.4292V99.1094H8.36067C6.4327 99.1094 4.8645 97.5409 4.8645 95.613V22.1047C4.94185 22.1125 5.02036 22.1167 5.09981 22.1167H115.49V95.613C115.49 97.5409 113.921 99.1094 111.993 99.1094H109.396V63.0151C109.396 61.7209 108.346 60.6714 107.052 60.6714Z" fill="#E95A43"/>
<path d="M105.177 8.9917H52.2234C50.9289 8.9917 49.8796 10.0412 49.8796 11.3354C49.8796 12.6297 50.9289 13.6792 52.2234 13.6792H105.177C106.471 13.6792 107.521 12.6297 107.521 11.3354C107.521 10.0412 106.471 8.9917 105.177 8.9917Z" fill="#E95A43"/>
<path d="M26.209 9.67842C25.7731 9.24248 25.1684 8.9917 24.552 8.9917C23.9356 8.9917 23.3309 9.24225 22.895 9.67842C22.459 10.1144 22.2083 10.719 22.2083 11.3354C22.2083 11.9519 22.459 12.5565 22.895 12.9922C23.3309 13.4284 23.9356 13.6792 24.552 13.6792C25.1684 13.6792 25.7731 13.4284 26.209 12.9922C26.645 12.5565 26.8958 11.9519 26.8958 11.3354C26.8958 10.719 26.645 10.1144 26.209 9.67842Z" fill="#E95A43"/>
<path d="M16.834 9.67842C16.3981 9.24248 15.7934 8.9917 15.177 8.9917C14.5606 8.9917 13.9559 9.24225 13.52 9.67842C13.084 10.1144 12.8333 10.719 12.8333 11.3354C12.8333 11.9519 13.084 12.5565 13.52 12.9922C13.9559 13.4284 14.5606 13.6792 15.177 13.6792C15.7934 13.6792 16.3981 13.4284 16.834 12.9922C17.27 12.5565 17.5208 11.9519 17.5208 11.3354C17.5208 10.719 17.27 10.1144 16.834 9.67842Z" fill="#E95A43"/>
<path d="M35.584 9.67842C35.1481 9.24248 34.5458 8.9917 33.927 8.9917C33.3106 8.9917 32.7059 9.24225 32.27 9.67842C31.834 10.1144 31.5833 10.719 31.5833 11.3354C31.5833 11.9519 31.834 12.5565 32.27 12.9922C32.7059 13.4284 33.3106 13.6792 33.927 13.6792C34.5434 13.6792 35.1481 13.4284 35.584 12.9922C36.02 12.5565 36.2708 11.9519 36.2708 11.3354C36.2708 10.719 36.02 10.1144 35.584 9.67842Z" fill="#E95A43"/>
<path d="M93.709 81.5471C93.2731 81.1088 92.6684 80.8604 92.052 80.8604C91.4356 80.8604 90.8309 81.109 90.395 81.5471C89.959 81.983 89.7083 82.5877 89.7083 83.2041C89.7083 83.8205 89.959 84.4252 90.395 84.8611C90.8309 85.2968 91.4356 85.5479 92.052 85.5479C92.6684 85.5479 93.2731 85.2971 93.709 84.8611C94.145 84.4252 94.3958 83.8205 94.3958 83.2041C94.3958 82.5854 94.145 81.983 93.709 81.5471Z" fill="#E95A43"/>
<path d="M99.552 32.4148C94.8994 32.4148 91.1145 36.1997 91.1145 40.8523C91.1145 42.7003 91.7133 44.4103 92.7249 45.8018L77.1566 61.3702C75.9484 60.7015 74.5604 60.3195 73.0843 60.3195C71.7542 60.3195 70.4956 60.63 69.3755 61.1806L53.1195 44.9246C53.7882 43.7164 54.1702 42.3284 54.1702 40.8523C54.1702 36.1997 50.3853 32.4148 45.7327 32.4148C41.0801 32.4148 37.2952 36.1997 37.2952 40.8523C37.2952 42.4784 37.7588 43.9976 38.559 45.2871L24.7184 59.1274C23.5102 58.4588 22.1223 58.0767 20.6464 58.0767C15.9938 58.0767 12.2089 61.8617 12.2089 66.5142C12.2089 71.1668 15.9938 74.9517 20.6464 74.9517C25.299 74.9517 29.0839 71.1668 29.0839 66.5142C29.0839 65.0382 28.7019 63.6502 28.0332 62.442L42.039 48.4362C43.1553 48.9821 44.4087 49.2896 45.7327 49.2896C47.2086 49.2896 48.5965 48.9075 49.8048 48.2389L65.9016 64.3355C65.1069 65.6222 64.6468 67.1363 64.6468 68.7565C64.6468 73.4091 68.4317 77.194 73.0843 77.194C77.7369 77.194 81.5218 73.4091 81.5218 68.7565C81.5218 67.2804 81.1398 65.8925 80.4711 64.6842L96.4566 48.6987C97.4159 49.0789 98.4596 49.2898 99.552 49.2898C104.205 49.2898 107.99 45.5049 107.99 40.8523C107.99 36.1997 104.205 32.4148 99.552 32.4148ZM20.6466 70.2647C18.579 70.2647 16.8966 68.5824 16.8966 66.5147C16.8966 64.4471 18.579 62.7647 20.6466 62.7647C22.7143 62.7647 24.3966 64.4471 24.3966 66.5147C24.3966 68.5824 22.7143 70.2647 20.6466 70.2647ZM45.733 44.6023C43.6653 44.6023 41.983 42.92 41.983 40.8523C41.983 38.7846 43.6653 37.1023 45.733 37.1023C47.8006 37.1023 49.483 38.7846 49.483 40.8523C49.483 42.92 47.8006 44.6023 45.733 44.6023ZM73.0845 72.507C71.0169 72.507 69.3345 70.8246 69.3345 68.757C69.3345 66.6893 71.0169 65.007 73.0845 65.007C75.1522 65.007 76.8345 66.6893 76.8345 68.757C76.8345 70.8246 75.1522 72.507 73.0845 72.507ZM99.552 44.6023C97.4844 44.6023 95.802 42.92 95.802 40.8523C95.802 38.7846 97.4844 37.1023 99.552 37.1023C101.62 37.1023 103.302 38.7846 103.302 40.8523C103.302 42.92 101.62 44.6023 99.552 44.6023Z" fill="#E95A43"/>
<path d="M34.9419 30.777C34.5036 30.3411 33.9013 30.0901 33.2849 30.0901C32.6661 30.0901 32.0614 30.3409 31.6255 30.777C31.1896 31.2127 30.9411 31.8174 30.9411 32.4338C30.9411 33.0502 31.1896 33.6549 31.6255 34.0909C32.0638 34.5268 32.6661 34.7776 33.2849 34.7776C33.9013 34.7776 34.5036 34.527 34.9419 34.0909C35.3779 33.6549 35.6286 33.0502 35.6286 32.4338C35.6286 31.8174 35.3779 31.2127 34.9419 30.777Z" fill="#E95A43"/>
<path d="M24.552 30.0903H13.302C12.0075 30.0903 10.9583 31.1399 10.9583 32.4341C10.9583 33.7283 12.0075 34.7778 13.302 34.7778H24.552C25.8465 34.7778 26.8958 33.7283 26.8958 32.4341C26.8958 31.1399 25.8465 30.0903 24.552 30.0903Z" fill="#E95A43"/>
<path d="M24.552 41.3403H13.302C12.0075 41.3403 10.9583 42.3899 10.9583 43.6841C10.9583 44.9783 12.0075 46.0278 13.302 46.0278H24.552C25.8465 46.0278 26.8958 44.9783 26.8958 43.6841C26.8958 42.3899 25.8465 41.3403 24.552 41.3403Z" fill="#E95A43"/>
</g>
<defs>
<clipPath id="clip0">
<rect width="120" height="120" fill="white" transform="translate(0.177002 0.554199)"/>
</clipPath>
</defs>
</svg>
