<svg width="122" height="121" viewBox="0 0 122 121" fill="none" xmlns="http://www.w3.org/2000/svg">
<g clip-path="url(#clip0)">
<path d="M20.5984 23.0542C20.5984 17.6263 16.1537 13.2104 10.6903 13.2104C5.22695 13.2104 0.782227 17.6263 0.782227 23.0542C0.782227 28.4821 5.22695 32.8979 10.6903 32.8979C16.1537 32.8979 20.5984 28.4821 20.5984 23.0542ZM5.50036 23.0542C5.50036 20.211 7.82853 17.8979 10.6903 17.8979C13.5521 17.8979 15.8803 20.211 15.8803 23.0542C15.8803 25.8974 13.5521 28.2104 10.6903 28.2104C7.82853 28.2104 5.50036 25.8974 5.50036 23.0542Z" fill="#E95A43"/>
<path d="M9.02245 38.2722C8.58366 38.7081 8.33124 39.3128 8.33124 39.9292C8.33124 40.5456 8.58342 41.1503 9.02245 41.5862C9.46147 42.0222 10.0699 42.2729 10.6903 42.2729C11.3107 42.2729 11.9194 42.0222 12.3579 41.5862C12.797 41.1503 13.0494 40.5456 13.0494 39.9292C13.0494 39.3128 12.797 38.7081 12.3579 38.2722C11.9194 37.8362 11.3107 37.5854 10.6903 37.5854C10.0699 37.5854 9.46123 37.8362 9.02245 38.2722Z" fill="#E95A43"/>
<path d="M111.658 13.2104C106.195 13.2104 101.75 17.6263 101.75 23.0542C101.75 28.4821 106.195 32.8979 111.658 32.8979C117.122 32.8979 121.567 28.4821 121.567 23.0542C121.567 17.6263 117.122 13.2104 111.658 13.2104ZM111.658 28.2104C108.797 28.2104 106.469 25.8974 106.469 23.0542C106.469 20.211 108.797 17.8979 111.658 17.8979C114.52 17.8979 116.848 20.211 116.848 23.0542C116.848 25.8974 114.52 28.2104 111.658 28.2104Z" fill="#E95A43"/>
<path d="M111.658 38.0542C111.038 38.0542 110.429 38.305 109.991 38.7409C109.552 39.1769 109.299 39.7815 109.299 40.3979C109.299 41.0144 109.552 41.619 109.991 42.055C110.43 42.4909 111.038 42.7417 111.658 42.7417C112.279 42.7417 112.888 42.4909 113.326 42.055C113.765 41.619 114.018 41.0144 114.018 40.3979C114.018 39.7815 113.765 39.1769 113.326 38.7409C112.888 38.305 112.279 38.0542 111.658 38.0542Z" fill="#E95A43"/>
<path d="M111.658 47.4292C110.356 47.4292 109.299 48.4785 109.299 49.7729V72.7417H106.97V67.3722C106.97 66.0779 105.914 65.0284 104.611 65.0284H98.0919C97.2514 61.9682 96.0306 59.0387 94.4474 56.2813L99.0556 51.7028C99.9768 50.7876 99.9768 49.3035 99.0556 48.3883L88.0758 37.48C87.6332 37.0405 87.0333 36.7935 86.4077 36.7935C85.7821 36.7935 85.1821 37.0405 84.7396 37.48L80.1314 42.0583C77.3583 40.4865 74.4113 39.2744 71.3273 38.4376V31.9604C71.3273 30.666 70.2709 29.6167 68.9683 29.6167H63.5334V19.9548C67.8557 18.8964 71.0711 15.0142 71.0711 10.3979C71.0711 4.97006 66.6264 0.554199 61.1631 0.554199C55.6997 0.554199 51.255 4.97006 51.255 10.3979C51.255 15.0222 54.4817 18.9097 58.8153 19.9602V29.6167H53.4406C52.138 29.6167 51.0816 30.666 51.0816 31.9604V38.4494C48.0065 39.2872 45.0631 40.5013 42.2933 42.0744L37.6691 37.48C36.7476 36.5647 35.2543 36.5647 34.3327 37.48L23.3528 48.3883C22.4316 49.3035 22.4316 50.7876 23.3528 51.7028L27.9898 56.3099C26.4142 59.0591 25.1991 61.979 24.3611 65.0284H17.7975C16.4948 65.0284 15.4384 66.0779 15.4384 67.3722V72.7417H13.0494V49.3042C13.0494 48.0097 11.993 46.9604 10.6903 46.9604C9.38763 46.9604 8.33124 48.0097 8.33124 49.3042V75.0854C8.33124 76.3797 9.38763 77.4292 10.6903 77.4292H15.4384V82.7987C15.4384 84.0929 16.4948 85.1425 17.7975 85.1425H24.3734C25.2139 88.1863 26.4307 91.1015 28.0061 93.8451L23.3528 98.4679C22.4316 99.3831 22.4316 100.867 23.3528 101.783L34.3327 112.691C35.2541 113.606 36.7474 113.606 37.6691 112.691L42.3221 108.068C45.0836 109.633 48.0178 110.842 51.0816 111.677V118.21C51.0816 119.505 52.138 120.554 53.4406 120.554H68.968C70.2707 120.554 71.3271 119.505 71.3271 118.21V111.689C74.3965 110.857 77.3354 109.649 80.1024 108.084L84.7393 112.691C85.6608 113.606 87.1541 113.606 88.0758 112.691L99.0556 101.782C99.9768 100.867 99.9768 99.3831 99.0556 98.4676L94.4311 93.8732C96.0143 91.1216 97.2365 88.1969 98.0799 85.1422H104.611C105.914 85.1422 106.97 84.0927 106.97 82.7985V77.4292H111.658C112.961 77.4292 114.018 76.3797 114.018 75.0854V49.7729C114.018 48.4785 112.961 47.4292 111.658 47.4292ZM55.9731 10.3979C55.9731 7.55475 58.3013 5.2417 61.1631 5.2417C64.0248 5.2417 66.353 7.55475 66.353 10.3979C66.353 13.2412 64.0248 15.5542 61.1631 15.5542C58.3013 15.5542 55.9731 13.2412 55.9731 10.3979ZM102.252 80.455H96.2372C95.1839 80.455 94.2551 81.1515 93.9657 82.1577C93.9525 82.2029 93.9411 82.2486 93.9308 82.2946C93.0836 86.0945 91.5828 89.6854 89.4702 92.9676C88.8647 93.9083 89.0154 95.1379 89.8062 95.9073L94.0513 100.125L86.4079 107.719L82.1529 103.492C81.3784 102.706 80.1418 102.555 79.1946 103.156C75.8961 105.243 72.2896 106.725 68.4757 107.561C67.3957 107.791 66.609 108.744 66.609 109.856V115.867H55.7997V109.846C55.7997 108.734 55.0127 107.781 53.9323 107.551C50.1238 106.711 46.5236 105.227 43.2313 103.139C43.1622 103.095 43.0905 103.055 43.0173 103.018C42.0964 102.561 40.9902 102.753 40.2796 103.468L36.0012 107.719L28.3578 100.125L32.636 95.8745C33.3562 95.1686 33.5497 94.0696 33.0892 93.1546C33.0524 93.0817 33.0121 93.0107 32.9677 92.942C30.8665 89.6711 29.3722 86.094 28.5265 82.3105C28.2956 81.2371 27.3357 80.4552 26.2165 80.4552H20.1565V69.7162H26.2066C27.3255 69.7162 28.2852 68.9345 28.5164 67.8615C29.3569 64.0757 30.8469 60.4954 32.9446 57.2207C33.5483 56.2911 33.4138 55.0614 32.6212 54.2821L28.3576 50.046L36.001 42.4522L40.248 46.6717C40.9968 47.4294 42.1822 47.5987 43.1233 47.0535C43.1509 47.0376 43.1782 47.0207 43.2056 47.0036C46.509 44.9047 50.1233 43.4137 53.9325 42.5753C55.02 42.3437 55.7999 41.3856 55.7999 40.2803V34.3042H66.6092V40.2704C66.6092 41.3706 67.3823 42.3261 68.4637 42.5626C72.292 43.4001 75.9098 44.8876 79.2182 46.9846C80.109 47.5525 81.2814 47.462 82.0736 46.7535C82.1045 46.7261 82.1345 46.6977 82.1637 46.6687L86.4077 42.452L94.0511 50.0458L89.8147 54.2547C89.0218 55.0347 88.888 56.2656 89.4931 57.1951C91.6016 60.4801 93.0975 64.0726 93.9397 67.8735C93.9503 67.9204 93.9621 67.967 93.9753 68.0134C94.2648 69.0196 95.1938 69.7162 96.2471 69.7162H102.252V80.455Z" fill="#E95A43"/>
<path d="M61.1744 51.1792C47.9063 51.1792 37.1119 61.9035 37.1119 75.0854C37.1119 81.7429 39.8663 87.7724 44.3009 92.1112C44.3795 92.1988 44.4632 92.2825 44.5557 92.3584C48.8784 96.4654 54.7351 98.9917 61.1744 98.9917C67.6819 98.9917 73.5932 96.4108 77.929 92.2265C78.0368 92.1386 78.1349 92.0418 78.2241 91.9382C82.5556 87.613 85.2369 81.6545 85.2369 75.0854C85.2369 61.9035 74.4425 51.1792 61.1744 51.1792ZM48.991 89.9994C50.7294 87.2453 53.7728 85.5353 57.1262 85.5353H65.4226C68.7225 85.5353 71.739 87.204 73.4906 89.8942C70.1429 92.6474 65.8498 94.3042 61.1744 94.3042C56.5598 94.3042 52.3194 92.6884 48.991 89.9994ZM66.0786 76.0747C66.0786 78.7065 63.9234 80.8478 61.2744 80.8478C58.6254 80.8478 56.4702 78.7065 56.4702 76.0747V74.2954C56.4702 71.6636 58.6254 69.5223 61.2744 69.5223C63.9234 69.5223 66.0786 71.6636 66.0786 74.2954V76.0747ZM76.7886 86.4123C74.8787 83.939 72.2033 82.1586 69.1787 81.3444C70.1999 79.8374 70.7968 78.024 70.7968 76.0745V74.2951C70.7968 69.0784 66.5252 64.8346 61.2744 64.8346C56.0236 64.8346 51.752 69.0784 51.752 74.2951V76.0745C51.752 78.0229 52.3484 79.8351 53.3685 81.3416C50.2842 82.169 47.5708 83.9994 45.6564 86.5464C43.2539 83.3444 41.83 79.3771 41.83 75.0854C41.83 64.4882 50.5078 55.8667 61.1744 55.8667C71.8409 55.8667 80.5187 64.4882 80.5187 75.0854C80.5187 79.3183 79.1311 83.2335 76.7886 86.4123Z" fill="#E95A43"/>
</g>
<defs>
<clipPath id="clip0">
<rect width="120.784" height="120" fill="white" transform="translate(0.782227 0.554199)"/>
</clipPath>
</defs>
</svg>
