<svg width="26" height="23" viewBox="0 0 26 23" fill="none" xmlns="http://www.w3.org/2000/svg">
<path fill-rule="evenodd" clip-rule="evenodd" d="M10.2486 16.5367C12.6337 16.5367 14.5672 14.6031 14.5672 12.218C14.5672 9.83293 12.6337 7.89942 10.2486 7.89942C7.86345 7.89942 5.92994 9.83293 5.92994 12.218C5.92994 14.6031 7.86345 16.5367 10.2486 16.5367ZM10.2486 22.4273C15.887 22.4273 20.4578 17.8565 20.4578 12.218C20.4578 6.57963 15.887 2.00879 10.2486 2.00879C4.61014 2.00879 0.0393066 6.57963 0.0393066 12.218C0.0393066 17.8565 4.61014 22.4273 10.2486 22.4273Z" fill="url(#paint0_linear)"/>
<path fill-rule="evenodd" clip-rule="evenodd" d="M25.2366 4.28982L10.8575 18.6689L4.68243 12.4934L8.84786 8.32823L10.8576 10.3381L21.0713 0.124512L25.2366 4.28982Z" fill="#E95A43"/>
<defs>
<linearGradient id="paint0_linear" x1="0.0393066" y1="2.00879" x2="20.4578" y2="22.4273" gradientUnits="userSpaceOnUse">
<stop stop-color="#1DC4F4"/>
<stop offset="1" stop-color="#05AEF1"/>
</linearGradient>
</defs>
</svg>
