<?xml version="1.0" encoding="utf-8"?><svg xmlns="http://www.w3.org/2000/svg" xmlns:xlink="http://www.w3.org/1999/xlink"><symbol viewBox="0 0 19 13" id="check" xmlns="http://www.w3.org/2000/svg"><path d="M1.572 6.333l5.333 5.334L17.572 1"/><defs><linearGradient id="apaint0_linear" x1="1.572" y1="1" x2="11.418" y2="15.769" gradientUnits="userSpaceOnUse"><stop stop-color="#1DC4F4"/><stop offset="1" stop-color="#05AEF1"/></linearGradient></defs></symbol><symbol viewBox="0 0 18 10" id="infinity" xmlns="http://www.w3.org/2000/svg"><path d="M13.426 10a3.98 3.98 0 01-1.39-.232 4.68 4.68 0 01-1.143-.626 7.137 7.137 0 01-.967-.926c-.29-.345-.563-.708-.817-1.09-.263.382-.544.745-.844 1.09-.29.345-.608.654-.953.926a4.371 4.371 0 01-1.144.626A3.94 3.94 0 014.793 10a4.036 4.036 0 01-1.607-.327 4.16 4.16 0 01-1.348-.926A4.541 4.541 0 01.912 7.29a4.983 4.983 0 01-.34-1.879c0-.69.113-1.316.34-1.879a4.382 4.382 0 01.926-1.443c.39-.4.84-.708 1.348-.926a3.898 3.898 0 011.607-.34 3.94 3.94 0 012.519.87c.345.264.663.568.953.913.3.345.581.708.844 1.09.254-.382.527-.745.817-1.09.3-.345.622-.649.967-.912a4.442 4.442 0 011.144-.64 3.98 3.98 0 011.389-.232c.563 0 1.098.114 1.607.34.517.219.966.527 1.348.927.39.399.699.88.926 1.443.227.563.34 1.19.34 1.88a4.98 4.98 0 01-.34 1.878 4.541 4.541 0 01-.926 1.457 3.98 3.98 0 01-1.348.926 4.037 4.037 0 01-1.607.327zM4.888 8.012c.327 0 .631-.068.912-.204a3.06 3.06 0 00.79-.559c.254-.245.495-.522.722-.83.227-.318.454-.654.68-1.008a18.866 18.866 0 00-.68-.994 5.453 5.453 0 00-.722-.83 3.06 3.06 0 00-.79-.559 1.96 1.96 0 00-.912-.218c-.327 0-.635.055-.926.164a2.144 2.144 0 00-.749.49c-.218.209-.39.477-.517.803-.127.327-.19.708-.19 1.144 0 .436.063.817.19 1.144.127.327.3.6.517.817.218.209.468.368.75.477.29.108.598.163.925.163zm8.443 0c.326 0 .63-.055.912-.163.29-.11.54-.268.749-.477.218-.218.39-.49.517-.817.127-.327.19-.708.19-1.144 0-.436-.063-.817-.19-1.144a2.194 2.194 0 00-.517-.803 1.99 1.99 0 00-.75-.49 2.505 2.505 0 00-.912-.164 1.96 1.96 0 00-.912.218c-.281.136-.55.322-.803.558a5.454 5.454 0 00-.722.831c-.227.309-.454.64-.68.994.226.354.453.69.68 1.008.227.308.468.585.722.83.254.236.522.423.803.559.282.136.586.204.913.204z"/></symbol></svg>