<svg width="18" height="10" viewBox="0 0 18 10" fill="none" xmlns="http://www.w3.org/2000/svg">
<path d="M13.4258 9.99997C12.9174 9.99997 12.4544 9.92281 12.0369 9.76849C11.6284 9.61416 11.2471 9.40537 10.8931 9.14212C10.5481 8.86978 10.2258 8.56113 9.92626 8.21618C9.63577 7.87122 9.36343 7.5081 9.10925 7.12683C8.84599 7.5081 8.56458 7.87122 8.26501 8.21618C7.97452 8.56113 7.6568 8.86978 7.31184 9.14212C6.96688 9.40537 6.58561 9.61416 6.16803 9.76849C5.75045 9.92281 5.29202 9.99997 4.79273 9.99997C4.22991 9.99997 3.69431 9.89104 3.18595 9.67317C2.67759 9.4553 2.22824 9.14666 1.83789 8.74723C1.44755 8.33873 1.1389 7.85306 0.911953 7.29023C0.685006 6.72741 0.571533 6.10103 0.571533 5.41112C0.571533 4.7212 0.685006 4.09483 0.911953 3.532C1.1389 2.96918 1.44755 2.48805 1.83789 2.08862C2.22824 1.6892 2.67759 1.38055 3.18595 1.16268C3.69431 0.935737 4.22991 0.822266 4.79273 0.822266C5.29202 0.822266 5.75045 0.899427 6.16803 1.05375C6.58561 1.20807 6.96688 1.4214 7.31184 1.69374C7.6568 1.957 7.97452 2.2611 8.26501 2.60606C8.56458 2.95102 8.84599 3.31413 9.10925 3.69541C9.36343 3.31413 9.63577 2.95102 9.92626 2.60606C10.2258 2.2611 10.5481 1.957 10.8931 1.69374C11.2471 1.4214 11.6284 1.20807 12.0369 1.05375C12.4544 0.899427 12.9174 0.822266 13.4258 0.822266C13.9886 0.822266 14.5242 0.935737 15.0326 1.16268C15.55 1.38055 15.9993 1.6892 16.3806 2.08862C16.771 2.48805 17.0796 2.96918 17.3066 3.532C17.5335 4.09483 17.647 4.7212 17.647 5.41112C17.647 6.10103 17.5335 6.72741 17.3066 7.29023C17.0796 7.85306 16.771 8.33873 16.3806 8.74723C15.9993 9.14666 15.55 9.4553 15.0326 9.67317C14.5242 9.89104 13.9886 9.99997 13.4258 9.99997ZM4.88805 8.01192C5.21485 8.01192 5.51896 7.94384 5.80038 7.80767C6.08179 7.6715 6.34505 7.48541 6.59015 7.24938C6.84433 7.00428 7.08489 6.72741 7.31184 6.41876C7.53878 6.10104 7.76573 5.76515 7.99268 5.41112C7.76573 5.05708 7.53878 4.72574 7.31184 4.41709C7.08489 4.09937 6.84433 3.82249 6.59015 3.58647C6.34505 3.35045 6.08179 3.16435 5.80038 3.02818C5.51896 2.88294 5.21485 2.81031 4.88805 2.81031C4.56125 2.81031 4.2526 2.86478 3.96211 2.97372C3.6807 3.08265 3.43106 3.24605 3.21319 3.46392C2.99532 3.67271 2.82284 3.94051 2.69575 4.26731C2.56866 4.59411 2.50512 4.97538 2.50512 5.41112C2.50512 5.84685 2.56866 6.22813 2.69575 6.55493C2.82284 6.88173 2.99532 7.15407 3.21319 7.37193C3.43106 7.58073 3.6807 7.73959 3.96211 7.84852C4.2526 7.95746 4.56125 8.01192 4.88805 8.01192ZM13.3305 8.01192C13.6573 8.01192 13.9614 7.95746 14.2428 7.84852C14.5333 7.73959 14.7829 7.58073 14.9917 7.37193C15.2096 7.15407 15.382 6.88173 15.5091 6.55493C15.6362 6.22813 15.6998 5.84685 15.6998 5.41112C15.6998 4.97538 15.6362 4.59411 15.5091 4.26731C15.382 3.94051 15.2096 3.67271 14.9917 3.46392C14.7829 3.24605 14.5333 3.08265 14.2428 2.97372C13.9614 2.86478 13.6573 2.81031 13.3305 2.81031C13.0037 2.81031 12.6995 2.88294 12.4181 3.02818C12.1367 3.16435 11.8689 3.35045 11.6147 3.58647C11.3606 3.82249 11.12 4.09937 10.8931 4.41709C10.6661 4.72574 10.4392 5.05708 10.2122 5.41112C10.4392 5.76515 10.6661 6.10104 10.8931 6.41876C11.12 6.72741 11.3606 7.00428 11.6147 7.24938C11.8689 7.48541 12.1367 7.6715 12.4181 7.80767C12.6995 7.94384 13.0037 8.01192 13.3305 8.01192Z" fill="black"/>
</svg>
